<svg width="133" height="33" viewBox="0 0 133 33" fill="none" xmlns="http://www.w3.org/2000/svg">
<g clip-path="url(#clip0_208_15)">
<path d="M0.974679 12.4219C0.94255 10.5813 2.40866 9.06307 4.24933 9.03094V9.03094C7.93067 8.96668 10.9671 11.8989 11.0313 15.5802L11.2466 27.9117C11.2948 30.6727 9.0956 32.95 6.3346 32.9982V32.9982C3.5736 33.0464 1.29629 30.8472 1.2481 28.0862L0.974679 12.4219Z" fill="#5100F3"/>
<circle cx="12.5" cy="12.5" r="11.5" fill="#5100F3"/>
<circle cx="12.4997" cy="12.5" r="4.79167" fill="#F7F8FB"/>
<path d="M32.704 28.28V10.256H36.376L36.544 13.064L35.8 12.848C35.896 12.336 36.16 11.872 36.592 11.456C37.04 11.024 37.592 10.68 38.248 10.424C38.904 10.152 39.6 10.016 40.336 10.016C41.424 10.016 42.392 10.296 43.24 10.856C44.088 11.416 44.752 12.2 45.232 13.208C45.728 14.2 45.976 15.344 45.976 16.64C45.976 17.904 45.728 19.032 45.232 20.024C44.752 21.016 44.08 21.8 43.216 22.376C42.368 22.936 41.4 23.216 40.312 23.216C39.576 23.216 38.88 23.08 38.224 22.808C37.568 22.52 37.016 22.152 36.568 21.704C36.12 21.256 35.832 20.768 35.704 20.24L36.592 19.88V28.28H32.704ZM39.376 19.952C39.952 19.952 40.448 19.816 40.864 19.544C41.296 19.272 41.624 18.888 41.848 18.392C42.088 17.88 42.208 17.296 42.208 16.64C42.208 15.968 42.088 15.384 41.848 14.888C41.624 14.376 41.296 13.984 40.864 13.712C40.448 13.424 39.952 13.28 39.376 13.28C38.784 13.28 38.272 13.424 37.84 13.712C37.408 13.984 37.072 14.368 36.832 14.864C36.592 15.36 36.472 15.952 36.472 16.64C36.472 17.296 36.592 17.88 36.832 18.392C37.072 18.888 37.408 19.272 37.84 19.544C38.272 19.816 38.784 19.952 39.376 19.952ZM48.7169 23V10.256H52.5809V23H48.7169ZM50.6609 7.736C49.9249 7.736 49.3489 7.568 48.9329 7.232C48.5329 6.88 48.3329 6.384 48.3329 5.744C48.3329 5.152 48.5409 4.672 48.9569 4.304C49.3729 3.936 49.9409 3.752 50.6609 3.752C51.3649 3.752 51.9169 3.928 52.3169 4.28C52.7329 4.616 52.9409 5.104 52.9409 5.744C52.9409 6.336 52.7329 6.816 52.3169 7.184C51.9169 7.552 51.3649 7.736 50.6609 7.736ZM56.2118 23V10.256H59.8838L60.0278 12.848L59.2358 13.136C59.4118 12.56 59.7238 12.04 60.1718 11.576C60.6358 11.096 61.1878 10.712 61.8278 10.424C62.4678 10.136 63.1398 9.992 63.8438 9.992C64.8038 9.992 65.6118 10.192 66.2678 10.592C66.9238 10.976 67.4118 11.56 67.7318 12.344C68.0678 13.112 68.2358 14.064 68.2358 15.2V23H64.3718V15.488C64.3718 14.976 64.2998 14.552 64.1558 14.216C64.0118 13.88 63.7958 13.632 63.5078 13.472C63.2198 13.312 62.8598 13.24 62.4278 13.256C62.0918 13.256 61.7798 13.312 61.4918 13.424C61.2038 13.52 60.9478 13.672 60.7238 13.88C60.5158 14.072 60.3558 14.296 60.2438 14.552C60.1318 14.808 60.0758 15.096 60.0758 15.416V23H58.1318C57.7158 23 57.3398 23 57.0038 23C56.6838 23 56.4198 23 56.2118 23ZM71.4696 23V10.256H75.1416L75.2856 12.848L74.4936 13.136C74.6696 12.56 74.9816 12.04 75.4296 11.576C75.8936 11.096 76.4456 10.712 77.0856 10.424C77.7256 10.136 78.3976 9.992 79.1016 9.992C80.0616 9.992 80.8696 10.192 81.5256 10.592C82.1816 10.976 82.6696 11.56 82.9896 12.344C83.3256 13.112 83.4936 14.064 83.4936 15.2V23H79.6296V15.488C79.6296 14.976 79.5576 14.552 79.4136 14.216C79.2696 13.88 79.0536 13.632 78.7656 13.472C78.4776 13.312 78.1176 13.24 77.6856 13.256C77.3496 13.256 77.0376 13.312 76.7496 13.424C76.4616 13.52 76.2056 13.672 75.9816 13.88C75.7736 14.072 75.6136 14.296 75.5016 14.552C75.3896 14.808 75.3336 15.096 75.3336 15.416V23H73.3896C72.9736 23 72.5976 23 72.2616 23C71.9416 23 71.6776 23 71.4696 23ZM93.5194 23V15.176C93.5194 14.52 93.3354 14.04 92.9674 13.736C92.6154 13.416 92.1194 13.256 91.4794 13.256C90.8554 13.256 90.2954 13.376 89.7994 13.616C89.3194 13.84 88.8554 14.216 88.4074 14.744L86.1034 12.512C86.8714 11.728 87.7514 11.112 88.7434 10.664C89.7354 10.216 90.8154 9.992 91.9834 9.992C93.0554 9.992 93.9834 10.152 94.7674 10.472C95.5514 10.792 96.1594 11.28 96.5914 11.936C97.0234 12.592 97.2394 13.424 97.2394 14.432V23H93.5194ZM90.2074 23.24C89.4074 23.24 88.6794 23.08 88.0234 22.76C87.3834 22.44 86.8714 22 86.4874 21.44C86.1194 20.864 85.9354 20.192 85.9354 19.424C85.9354 18.768 86.0554 18.192 86.2954 17.696C86.5354 17.2 86.8874 16.792 87.3514 16.472C87.8314 16.136 88.4234 15.888 89.1274 15.728C89.8474 15.552 90.6794 15.464 91.6234 15.464H95.4874L95.2714 17.888H91.7194C91.3834 17.888 91.0874 17.92 90.8314 17.984C90.5754 18.032 90.3594 18.12 90.1834 18.248C90.0074 18.36 89.8714 18.496 89.7754 18.656C89.6954 18.816 89.6554 19.008 89.6554 19.232C89.6554 19.472 89.7194 19.68 89.8474 19.856C89.9754 20.032 90.1434 20.168 90.3514 20.264C90.5754 20.36 90.8314 20.408 91.1194 20.408C91.5354 20.408 91.9274 20.344 92.2954 20.216C92.6794 20.072 93.0154 19.872 93.3034 19.616C93.6074 19.36 93.8474 19.064 94.0234 18.728L94.6954 20.456C94.3594 21 93.9514 21.48 93.4714 21.896C93.0074 22.312 92.4954 22.64 91.9354 22.88C91.3914 23.12 90.8154 23.24 90.2074 23.24ZM105.913 23.24C104.681 23.24 103.569 22.952 102.577 22.376C101.601 21.8 100.833 21.016 100.273 20.024C99.7132 19.016 99.4332 17.888 99.4332 16.64C99.4332 15.36 99.7132 14.224 100.273 13.232C100.833 12.224 101.601 11.432 102.577 10.856C103.569 10.28 104.681 9.992 105.913 9.992C107.049 9.992 108.089 10.2 109.033 10.616C109.993 11.016 110.745 11.568 111.289 12.272L109.201 14.816C108.993 14.544 108.737 14.296 108.433 14.072C108.129 13.848 107.793 13.672 107.425 13.544C107.057 13.416 106.673 13.352 106.273 13.352C105.665 13.352 105.129 13.496 104.665 13.784C104.201 14.056 103.841 14.44 103.585 14.936C103.329 15.432 103.201 15.992 103.201 16.616C103.201 17.224 103.329 17.776 103.585 18.272C103.857 18.752 104.225 19.136 104.689 19.424C105.153 19.712 105.673 19.856 106.249 19.856C106.665 19.856 107.049 19.8 107.401 19.688C107.753 19.576 108.073 19.416 108.361 19.208C108.665 19 108.945 18.752 109.201 18.464L111.289 21.008C110.745 21.68 109.985 22.224 109.009 22.64C108.033 23.04 107.001 23.24 105.913 23.24ZM113.399 23V5.24H117.263V23H113.399ZM126.526 23.24C125.118 23.24 123.886 22.96 122.83 22.4C121.79 21.84 120.982 21.072 120.406 20.096C119.846 19.104 119.566 17.976 119.566 16.712C119.566 15.72 119.726 14.816 120.046 14C120.366 13.168 120.814 12.456 121.39 11.864C121.982 11.272 122.67 10.816 123.454 10.496C124.254 10.16 125.126 9.992 126.07 9.992C126.966 9.992 127.782 10.152 128.518 10.472C129.254 10.792 129.894 11.24 130.438 11.816C130.982 12.392 131.398 13.072 131.686 13.856C131.974 14.64 132.11 15.496 132.094 16.424L132.07 17.48H121.942L121.366 15.296H128.926L128.518 15.728V15.248C128.486 14.848 128.358 14.504 128.134 14.216C127.926 13.912 127.646 13.672 127.294 13.496C126.958 13.32 126.574 13.232 126.142 13.232C125.502 13.232 124.958 13.36 124.51 13.616C124.078 13.856 123.75 14.208 123.526 14.672C123.302 15.136 123.19 15.712 123.19 16.4C123.19 17.088 123.334 17.696 123.622 18.224C123.926 18.752 124.358 19.16 124.918 19.448C125.494 19.736 126.174 19.88 126.958 19.88C127.486 19.88 127.966 19.8 128.398 19.64C128.83 19.48 129.294 19.208 129.79 18.824L131.59 21.368C131.094 21.784 130.566 22.136 130.006 22.424C129.446 22.696 128.87 22.896 128.278 23.024C127.702 23.168 127.118 23.24 126.526 23.24Z" fill="#2A3351"/>
</g>
<defs>
<clipPath id="clip0_208_15">
<rect width="133" height="33" fill="white"/>
</clipPath>
</defs>
</svg>
