<svg width="124" height="33" viewBox="0 0 124 33" fill="none" xmlns="http://www.w3.org/2000/svg">
<g clip-path="url(#clip0_208_15)">
<path d="M0.974679 12.4219C0.94255 10.5813 2.40866 9.06307 4.24933 9.03094V9.03094C7.93067 8.96668 10.9671 11.8989 11.0313 15.5802L11.2466 27.9117C11.2948 30.6727 9.0956 32.95 6.3346 32.9982V32.9982C3.5736 33.0464 1.29629 30.8472 1.2481 28.0862L0.974679 12.4219Z" fill="#F7F8FB"/>
<circle cx="12.5" cy="12.5" r="11.5" fill="#F7F8FB"/>
<circle cx="12.4997" cy="12.5" r="4.79167" fill="#5100f3"/>
<path d="M32.704 28.28V10.256H36.376L36.544 13.064L35.8 12.848C35.896 12.336 36.16 11.872 36.592 11.456C37.04 11.024 37.592 10.68 38.248 10.424C38.904 10.152 39.6 10.016 40.336 10.016C41.424 10.016 42.392 10.296 43.24 10.856C44.088 11.416 44.752 12.2 45.232 13.208C45.728 14.2 45.976 15.344 45.976 16.64C45.976 17.904 45.728 19.032 45.232 20.024C44.752 21.016 44.08 21.8 43.216 22.376C42.368 22.936 41.4 23.216 40.312 23.216C39.576 23.216 38.88 23.08 38.224 22.808C37.568 22.52 37.016 22.152 36.568 21.704C36.12 21.256 35.832 20.768 35.704 20.24L36.592 19.88V28.28H32.704ZM39.376 19.952C39.952 19.952 40.448 19.816 40.864 19.544C41.296 19.272 41.624 18.888 41.848 18.392C42.088 17.88 42.208 17.296 42.208 16.64C42.208 15.968 42.088 15.384 41.848 14.888C41.624 14.376 41.296 13.984 40.864 13.712C40.448 13.424 39.952 13.28 39.376 13.28C38.784 13.28 38.272 13.424 37.84 13.712C37.408 13.984 37.072 14.368 36.832 14.864C36.592 15.36 36.472 15.952 36.472 16.64C36.472 17.296 36.592 17.88 36.832 18.392C37.072 18.888 37.408 19.272 37.84 19.544C38.272 19.816 38.784 19.952 39.376 19.952ZM55.2929 23V15.176C55.2929 14.52 55.1089 14.04 54.7409 13.736C54.3889 13.416 53.8929 13.256 53.2529 13.256C52.6289 13.256 52.0689 13.376 51.5729 13.616C51.0929 13.84 50.6289 14.216 50.1809 14.744L47.8769 12.512C48.6449 11.728 49.5249 11.112 50.5169 10.664C51.5089 10.216 52.5889 9.992 53.7569 9.992C54.8289 9.992 55.7569 10.152 56.5409 10.472C57.3249 10.792 57.9329 11.28 58.3649 11.936C58.7969 12.592 59.0129 13.424 59.0129 14.432V23H55.2929ZM51.9809 23.24C51.1809 23.24 50.4529 23.08 49.7969 22.76C49.1569 22.44 48.6449 22 48.2609 21.44C47.8929 20.864 47.7089 20.192 47.7089 19.424C47.7089 18.768 47.8289 18.192 48.0689 17.696C48.3089 17.2 48.6609 16.792 49.1249 16.472C49.6049 16.136 50.1969 15.888 50.9009 15.728C51.6209 15.552 52.4529 15.464 53.3969 15.464H57.2609L57.0449 17.888H53.4929C53.1569 17.888 52.8609 17.92 52.6049 17.984C52.3489 18.032 52.1329 18.12 51.9569 18.248C51.7809 18.36 51.6449 18.496 51.5489 18.656C51.4689 18.816 51.4289 19.008 51.4289 19.232C51.4289 19.472 51.4929 19.68 51.6209 19.856C51.7489 20.032 51.9169 20.168 52.1249 20.264C52.3489 20.36 52.6049 20.408 52.8929 20.408C53.3089 20.408 53.7009 20.344 54.0689 20.216C54.4529 20.072 54.7889 19.872 55.0769 19.616C55.3809 19.36 55.6209 19.064 55.7969 18.728L56.4689 20.456C56.1329 21 55.7249 21.48 55.2449 21.896C54.7809 22.312 54.2689 22.64 53.7089 22.88C53.1649 23.12 52.5889 23.24 51.9809 23.24ZM62.0946 23V10.256H65.7666L65.9346 14.408L65.2146 13.592C65.4226 12.92 65.7426 12.312 66.1746 11.768C66.6066 11.224 67.1186 10.792 67.7106 10.472C68.3186 10.152 68.9506 9.992 69.6066 9.992C69.8946 9.992 70.1586 10.016 70.3986 10.064C70.6546 10.096 70.8786 10.152 71.0706 10.232L70.0386 14.48C69.8626 14.384 69.6226 14.304 69.3186 14.24C69.0306 14.16 68.7266 14.12 68.4066 14.12C68.0546 14.12 67.7266 14.184 67.4226 14.312C67.1346 14.424 66.8786 14.592 66.6546 14.816C66.4466 15.04 66.2786 15.304 66.1506 15.608C66.0386 15.912 65.9826 16.256 65.9826 16.64V23H62.0946ZM74.5647 23V7.04H78.4287V23H74.5647ZM72.3087 13.64V10.256H80.8767V13.64H72.3087ZM83.3106 23V10.256H87.1746V23H83.3106ZM85.2546 7.736C84.5186 7.736 83.9426 7.568 83.5266 7.232C83.1266 6.88 82.9266 6.384 82.9266 5.744C82.9266 5.152 83.1346 4.672 83.5506 4.304C83.9666 3.936 84.5346 3.752 85.2546 3.752C85.9586 3.752 86.5106 3.928 86.9106 4.28C87.3266 4.616 87.5346 5.104 87.5346 5.744C87.5346 6.336 87.3266 6.816 86.9106 7.184C86.5106 7.552 85.9586 7.736 85.2546 7.736ZM96.3976 23.24C95.1656 23.24 94.0536 22.952 93.0616 22.376C92.0856 21.8 91.3176 21.016 90.7576 20.024C90.1976 19.016 89.9176 17.888 89.9176 16.64C89.9176 15.36 90.1976 14.224 90.7576 13.232C91.3176 12.224 92.0856 11.432 93.0616 10.856C94.0536 10.28 95.1656 9.992 96.3976 9.992C97.5336 9.992 98.5736 10.2 99.5176 10.616C100.478 11.016 101.23 11.568 101.774 12.272L99.6856 14.816C99.4776 14.544 99.2216 14.296 98.9176 14.072C98.6136 13.848 98.2776 13.672 97.9096 13.544C97.5416 13.416 97.1576 13.352 96.7576 13.352C96.1496 13.352 95.6136 13.496 95.1496 13.784C94.6856 14.056 94.3256 14.44 94.0696 14.936C93.8136 15.432 93.6856 15.992 93.6856 16.616C93.6856 17.224 93.8136 17.776 94.0696 18.272C94.3416 18.752 94.7096 19.136 95.1736 19.424C95.6376 19.712 96.1576 19.856 96.7336 19.856C97.1496 19.856 97.5336 19.8 97.8856 19.688C98.2376 19.576 98.5576 19.416 98.8456 19.208C99.1496 19 99.4296 18.752 99.6856 18.464L101.774 21.008C101.23 21.68 100.47 22.224 99.4936 22.64C98.5176 23.04 97.4856 23.24 96.3976 23.24ZM103.884 23V5.24H107.748V23H103.884ZM117.01 23.24C115.602 23.24 114.37 22.96 113.314 22.4C112.274 21.84 111.466 21.072 110.89 20.096C110.33 19.104 110.05 17.976 110.05 16.712C110.05 15.72 110.21 14.816 110.53 14C110.85 13.168 111.298 12.456 111.874 11.864C112.466 11.272 113.154 10.816 113.938 10.496C114.738 10.16 115.61 9.992 116.554 9.992C117.45 9.992 118.266 10.152 119.002 10.472C119.738 10.792 120.378 11.24 120.922 11.816C121.466 12.392 121.882 13.072 122.17 13.856C122.458 14.64 122.594 15.496 122.578 16.424L122.554 17.48H112.426L111.85 15.296H119.41L119.002 15.728V15.248C118.97 14.848 118.842 14.504 118.618 14.216C118.41 13.912 118.13 13.672 117.778 13.496C117.442 13.32 117.058 13.232 116.626 13.232C115.986 13.232 115.442 13.36 114.994 13.616C114.562 13.856 114.234 14.208 114.01 14.672C113.786 15.136 113.674 15.712 113.674 16.4C113.674 17.088 113.818 17.696 114.106 18.224C114.41 18.752 114.842 19.16 115.402 19.448C115.978 19.736 116.658 19.88 117.442 19.88C117.97 19.88 118.45 19.8 118.882 19.64C119.314 19.48 119.778 19.208 120.274 18.824L122.074 21.368C121.578 21.784 121.05 22.136 120.49 22.424C119.93 22.696 119.354 22.896 118.762 23.024C118.186 23.168 117.602 23.24 117.01 23.24Z" fill="#F7F8FB"/>
</g>
<defs>
<clipPath id="clip0_208_15">
<rect width="124" height="33" fill="white"/>
</clipPath>
</defs>
</svg>