<svg width="1024" height="1024" viewBox="0 0 1024 1024" fill="none" xmlns="http://www.w3.org/2000/svg">
<g clip-path="url(#clip0_302_2)">
<path d="M512 1024.07C794.77 1024.07 1024 794.842 1024 512.072C1024 229.302 794.77 0.0722656 512 0.0722656C229.23 0.0722656 0 229.302 0 512.072C0 794.842 229.23 1024.07 512 1024.07Z" fill="#1977F3"/>
<path d="M711.299 660.107L733.979 512.072H591.993V416.023C591.993 375.558 611.794 336.03 675.443 336.03H740.028V210.028C740.028 210.028 681.419 200.02 625.402 200.02C508.472 200.02 432.007 270.869 432.007 399.247V512.072H301.973V660.107H432.007V1017.88C458.071 1021.98 484.784 1024.07 512 1024.07C539.216 1024.07 565.929 1021.91 591.993 1017.88V660.107H711.299Z" fill="white"/>
</g>
<defs>
<clipPath id="clip0_302_2">
<rect width="1024" height="1024" fill="white"/>
</clipPath>
</defs>
</svg>