<svg width="751" height="188" viewBox="0 0 751 188" fill="none" xmlns="http://www.w3.org/2000/svg">
<path d="M0 78H36V108C36 124.569 22.5685 138 6 138H0V78Z" fill="#24242d"/>
<circle cx="57.5" cy="75.5" r="22.5" fill="#24242d"/>
<path d="M114.125 94C114.125 85.3333 116 77.625 119.75 70.875C123.5 64.0417 128.708 58.75 135.375 55C142.125 51.1667 149.75 49.25 158.25 49.25C168.667 49.25 177.583 52 185 57.5C192.417 63 197.375 70.5 199.875 80H176.375C174.625 76.3333 172.125 73.5417 168.875 71.625C165.708 69.7083 162.083 68.75 158 68.75C151.417 68.75 146.083 71.0417 142 75.625C137.917 80.2083 135.875 86.3333 135.875 94C135.875 101.667 137.917 107.792 142 112.375C146.083 116.958 151.417 119.25 158 119.25C162.083 119.25 165.708 118.292 168.875 116.375C172.125 114.458 174.625 111.667 176.375 108H199.875C197.375 117.5 192.417 125 185 130.5C177.583 135.917 168.667 138.625 158.25 138.625C149.75 138.625 142.125 136.75 135.375 133C128.708 129.167 123.5 123.875 119.75 117.125C116 110.375 114.125 102.667 114.125 94ZM244.715 139C237.882 139 231.715 137.542 226.215 134.625C220.798 131.708 216.507 127.542 213.34 122.125C210.257 116.708 208.715 110.375 208.715 103.125C208.715 95.9583 210.298 89.6667 213.465 84.25C216.632 78.75 220.965 74.5417 226.465 71.625C231.965 68.7083 238.132 67.25 244.965 67.25C251.798 67.25 257.965 68.7083 263.465 71.625C268.965 74.5417 273.298 78.75 276.465 84.25C279.632 89.6667 281.215 95.9583 281.215 103.125C281.215 110.292 279.59 116.625 276.34 122.125C273.173 127.542 268.798 131.708 263.215 134.625C257.715 137.542 251.548 139 244.715 139ZM244.715 120.5C248.798 120.5 252.257 119 255.09 116C258.007 113 259.465 108.708 259.465 103.125C259.465 97.5417 258.048 93.25 255.215 90.25C252.465 87.25 249.048 85.75 244.965 85.75C240.798 85.75 237.34 87.25 234.59 90.25C231.84 93.1667 230.465 97.4583 230.465 103.125C230.465 108.708 231.798 113 234.465 116C237.215 119 240.632 120.5 244.715 120.5ZM381.555 67.5C390.221 67.5 397.096 70.125 402.18 75.375C407.346 80.625 409.93 87.9167 409.93 97.25V138H388.68V100.125C388.68 95.625 387.471 92.1667 385.055 89.75C382.721 87.25 379.471 86 375.305 86C371.138 86 367.846 87.25 365.43 89.75C363.096 92.1667 361.93 95.625 361.93 100.125V138H340.68V100.125C340.68 95.625 339.471 92.1667 337.055 89.75C334.721 87.25 331.471 86 327.305 86C323.138 86 319.846 87.25 317.43 89.75C315.096 92.1667 313.93 95.625 313.93 100.125V138H292.555V68.25H313.93V77C316.096 74.0833 318.93 71.7917 322.43 70.125C325.93 68.375 329.888 67.5 334.305 67.5C339.555 67.5 344.221 68.625 348.305 70.875C352.471 73.125 355.721 76.3333 358.055 80.5C360.471 76.6667 363.763 73.5417 367.93 71.125C372.096 68.7083 376.638 67.5 381.555 67.5ZM446.254 78.125C448.337 74.875 451.212 72.25 454.879 70.25C458.546 68.25 462.837 67.25 467.754 67.25C473.504 67.25 478.712 68.7083 483.379 71.625C488.046 74.5417 491.712 78.7083 494.379 84.125C497.129 89.5417 498.504 95.8333 498.504 103C498.504 110.167 497.129 116.5 494.379 122C491.712 127.417 488.046 131.625 483.379 134.625C478.712 137.542 473.504 139 467.754 139C462.921 139 458.629 138 454.879 136C451.212 134 448.337 131.417 446.254 128.25V171.25H424.879V68.25H446.254V78.125ZM476.754 103C476.754 97.6667 475.254 93.5 472.254 90.5C469.337 87.4167 465.712 85.875 461.379 85.875C457.129 85.875 453.504 87.4167 450.504 90.5C447.587 93.5833 446.129 97.7917 446.129 103.125C446.129 108.458 447.587 112.667 450.504 115.75C453.504 118.833 457.129 120.375 461.379 120.375C465.629 120.375 469.254 118.833 472.254 115.75C475.254 112.583 476.754 108.333 476.754 103ZM505.468 103C505.468 95.8333 506.801 89.5417 509.468 84.125C512.218 78.7083 515.926 74.5417 520.593 71.625C525.259 68.7083 530.468 67.25 536.218 67.25C541.134 67.25 545.426 68.25 549.093 70.25C552.843 72.25 555.718 74.875 557.718 78.125V68.25H579.093V138H557.718V128.125C555.634 131.375 552.718 134 548.968 136C545.301 138 541.009 139 536.093 139C530.426 139 525.259 137.542 520.593 134.625C515.926 131.625 512.218 127.417 509.468 122C506.801 116.5 505.468 110.167 505.468 103ZM557.718 103.125C557.718 97.7917 556.218 93.5833 553.218 90.5C550.301 87.4167 546.718 85.875 542.468 85.875C538.218 85.875 534.593 87.4167 531.593 90.5C528.676 93.5 527.218 97.6667 527.218 103C527.218 108.333 528.676 112.583 531.593 115.75C534.593 118.833 538.218 120.375 542.468 120.375C546.718 120.375 550.301 118.833 553.218 115.75C556.218 112.667 557.718 108.458 557.718 103.125ZM637.057 67.5C645.223 67.5 651.723 70.1667 656.557 75.5C661.473 80.75 663.932 88 663.932 97.25V138H642.682V100.125C642.682 95.4583 641.473 91.8333 639.057 89.25C636.64 86.6667 633.39 85.375 629.307 85.375C625.223 85.375 621.973 86.6667 619.557 89.25C617.14 91.8333 615.932 95.4583 615.932 100.125V138H594.557V68.25H615.932V77.5C618.098 74.4167 621.015 72 624.682 70.25C628.348 68.4167 632.473 67.5 637.057 67.5ZM750.035 68.25L706.285 171.125H683.285L699.285 135.625L670.91 68.25H694.785L710.91 111.875L726.91 68.25H750.035Z" fill="#24242d"/>
</svg>
