<svg width="814" height="188" viewBox="0 0 814 188" fill="none" xmlns="http://www.w3.org/2000/svg">
<rect x="56" y="41" width="30" height="98" fill="#24242d"/>
<circle cx="22.5" cy="115.5" r="22.5" fill="#24242d"/>
<circle cx="120.5" cy="63.5" r="22.5" fill="#24242d"/>
<circle cx="120.5" cy="117.5" r="22.5" fill="#24242d"/>
<path d="M177.125 94C177.125 85.3333 179 77.625 182.75 70.875C186.5 64.0417 191.708 58.75 198.375 55C205.125 51.1667 212.75 49.25 221.25 49.25C231.667 49.25 240.583 52 248 57.5C255.417 63 260.375 70.5 262.875 80H239.375C237.625 76.3333 235.125 73.5417 231.875 71.625C228.708 69.7083 225.083 68.75 221 68.75C214.417 68.75 209.083 71.0417 205 75.625C200.917 80.2083 198.875 86.3333 198.875 94C198.875 101.667 200.917 107.792 205 112.375C209.083 116.958 214.417 119.25 221 119.25C225.083 119.25 228.708 118.292 231.875 116.375C235.125 114.458 237.625 111.667 239.375 108H262.875C260.375 117.5 255.417 125 248 130.5C240.583 135.917 231.667 138.625 221.25 138.625C212.75 138.625 205.125 136.75 198.375 133C191.708 129.167 186.5 123.875 182.75 117.125C179 110.375 177.125 102.667 177.125 94ZM307.715 139C300.882 139 294.715 137.542 289.215 134.625C283.798 131.708 279.507 127.542 276.34 122.125C273.257 116.708 271.715 110.375 271.715 103.125C271.715 95.9583 273.298 89.6667 276.465 84.25C279.632 78.75 283.965 74.5417 289.465 71.625C294.965 68.7083 301.132 67.25 307.965 67.25C314.798 67.25 320.965 68.7083 326.465 71.625C331.965 74.5417 336.298 78.75 339.465 84.25C342.632 89.6667 344.215 95.9583 344.215 103.125C344.215 110.292 342.59 116.625 339.34 122.125C336.173 127.542 331.798 131.708 326.215 134.625C320.715 137.542 314.548 139 307.715 139ZM307.715 120.5C311.798 120.5 315.257 119 318.09 116C321.007 113 322.465 108.708 322.465 103.125C322.465 97.5417 321.048 93.25 318.215 90.25C315.465 87.25 312.048 85.75 307.965 85.75C303.798 85.75 300.34 87.25 297.59 90.25C294.84 93.1667 293.465 97.4583 293.465 103.125C293.465 108.708 294.798 113 297.465 116C300.215 119 303.632 120.5 307.715 120.5ZM444.555 67.5C453.221 67.5 460.096 70.125 465.18 75.375C470.346 80.625 472.93 87.9167 472.93 97.25V138H451.68V100.125C451.68 95.625 450.471 92.1667 448.055 89.75C445.721 87.25 442.471 86 438.305 86C434.138 86 430.846 87.25 428.43 89.75C426.096 92.1667 424.93 95.625 424.93 100.125V138H403.68V100.125C403.68 95.625 402.471 92.1667 400.055 89.75C397.721 87.25 394.471 86 390.305 86C386.138 86 382.846 87.25 380.43 89.75C378.096 92.1667 376.93 95.625 376.93 100.125V138H355.555V68.25H376.93V77C379.096 74.0833 381.93 71.7917 385.43 70.125C388.93 68.375 392.888 67.5 397.305 67.5C402.555 67.5 407.221 68.625 411.305 70.875C415.471 73.125 418.721 76.3333 421.055 80.5C423.471 76.6667 426.763 73.5417 430.93 71.125C435.096 68.7083 439.638 67.5 444.555 67.5ZM509.254 78.125C511.337 74.875 514.212 72.25 517.879 70.25C521.546 68.25 525.837 67.25 530.754 67.25C536.504 67.25 541.712 68.7083 546.379 71.625C551.046 74.5417 554.712 78.7083 557.379 84.125C560.129 89.5417 561.504 95.8333 561.504 103C561.504 110.167 560.129 116.5 557.379 122C554.712 127.417 551.046 131.625 546.379 134.625C541.712 137.542 536.504 139 530.754 139C525.921 139 521.629 138 517.879 136C514.212 134 511.337 131.417 509.254 128.25V171.25H487.879V68.25H509.254V78.125ZM539.754 103C539.754 97.6667 538.254 93.5 535.254 90.5C532.337 87.4167 528.712 85.875 524.379 85.875C520.129 85.875 516.504 87.4167 513.504 90.5C510.587 93.5833 509.129 97.7917 509.129 103.125C509.129 108.458 510.587 112.667 513.504 115.75C516.504 118.833 520.129 120.375 524.379 120.375C528.629 120.375 532.254 118.833 535.254 115.75C538.254 112.583 539.754 108.333 539.754 103ZM568.468 103C568.468 95.8333 569.801 89.5417 572.468 84.125C575.218 78.7083 578.926 74.5417 583.593 71.625C588.259 68.7083 593.468 67.25 599.218 67.25C604.134 67.25 608.426 68.25 612.093 70.25C615.843 72.25 618.718 74.875 620.718 78.125V68.25H642.093V138H620.718V128.125C618.634 131.375 615.718 134 611.968 136C608.301 138 604.009 139 599.093 139C593.426 139 588.259 137.542 583.593 134.625C578.926 131.625 575.218 127.417 572.468 122C569.801 116.5 568.468 110.167 568.468 103ZM620.718 103.125C620.718 97.7917 619.218 93.5833 616.218 90.5C613.301 87.4167 609.718 85.875 605.468 85.875C601.218 85.875 597.593 87.4167 594.593 90.5C591.676 93.5 590.218 97.6667 590.218 103C590.218 108.333 591.676 112.583 594.593 115.75C597.593 118.833 601.218 120.375 605.468 120.375C609.718 120.375 613.301 118.833 616.218 115.75C619.218 112.667 620.718 108.458 620.718 103.125ZM700.057 67.5C708.223 67.5 714.723 70.1667 719.557 75.5C724.473 80.75 726.932 88 726.932 97.25V138H705.682V100.125C705.682 95.4583 704.473 91.8333 702.057 89.25C699.64 86.6667 696.39 85.375 692.307 85.375C688.223 85.375 684.973 86.6667 682.557 89.25C680.14 91.8333 678.932 95.4583 678.932 100.125V138H657.557V68.25H678.932V77.5C681.098 74.4167 684.015 72 687.682 70.25C691.348 68.4167 695.473 67.5 700.057 67.5ZM813.035 68.25L769.285 171.125H746.285L762.285 135.625L733.91 68.25H757.785L773.91 111.875L789.91 68.25H813.035Z" fill="#24242d"/>
</svg>
