<svg width="761" height="188" viewBox="0 0 761 188" fill="none" xmlns="http://www.w3.org/2000/svg">
<rect x="84" y="144" width="30" height="98" transform="rotate(-180 84 144)" fill="#edecf0"/>
<rect x="40" y="91" width="40" height="40" transform="rotate(-180 40 91)" fill="#edecf0"/>
<rect x="40" y="91" width="40" height="40" transform="rotate(-180 40 91)" fill="#edecf0"/>
<rect x="40" y="91" width="40" height="40" transform="rotate(-180 40 91)" fill="#edecf0"/>
<circle cx="20" cy="126" r="20" transform="rotate(-90 20 126)" fill="#edecf0"/>
<path d="M124.125 94C124.125 85.3333 126 77.625 129.75 70.875C133.5 64.0417 138.708 58.75 145.375 55C152.125 51.1667 159.75 49.25 168.25 49.25C178.667 49.25 187.583 52 195 57.5C202.417 63 207.375 70.5 209.875 80H186.375C184.625 76.3333 182.125 73.5417 178.875 71.625C175.708 69.7083 172.083 68.75 168 68.75C161.417 68.75 156.083 71.0417 152 75.625C147.917 80.2083 145.875 86.3333 145.875 94C145.875 101.667 147.917 107.792 152 112.375C156.083 116.958 161.417 119.25 168 119.25C172.083 119.25 175.708 118.292 178.875 116.375C182.125 114.458 184.625 111.667 186.375 108H209.875C207.375 117.5 202.417 125 195 130.5C187.583 135.917 178.667 138.625 168.25 138.625C159.75 138.625 152.125 136.75 145.375 133C138.708 129.167 133.5 123.875 129.75 117.125C126 110.375 124.125 102.667 124.125 94ZM254.715 139C247.882 139 241.715 137.542 236.215 134.625C230.798 131.708 226.507 127.542 223.34 122.125C220.257 116.708 218.715 110.375 218.715 103.125C218.715 95.9583 220.298 89.6667 223.465 84.25C226.632 78.75 230.965 74.5417 236.465 71.625C241.965 68.7083 248.132 67.25 254.965 67.25C261.798 67.25 267.965 68.7083 273.465 71.625C278.965 74.5417 283.298 78.75 286.465 84.25C289.632 89.6667 291.215 95.9583 291.215 103.125C291.215 110.292 289.59 116.625 286.34 122.125C283.173 127.542 278.798 131.708 273.215 134.625C267.715 137.542 261.548 139 254.715 139ZM254.715 120.5C258.798 120.5 262.257 119 265.09 116C268.007 113 269.465 108.708 269.465 103.125C269.465 97.5417 268.048 93.25 265.215 90.25C262.465 87.25 259.048 85.75 254.965 85.75C250.798 85.75 247.34 87.25 244.59 90.25C241.84 93.1667 240.465 97.4583 240.465 103.125C240.465 108.708 241.798 113 244.465 116C247.215 119 250.632 120.5 254.715 120.5ZM391.555 67.5C400.221 67.5 407.096 70.125 412.18 75.375C417.346 80.625 419.93 87.9167 419.93 97.25V138H398.68V100.125C398.68 95.625 397.471 92.1667 395.055 89.75C392.721 87.25 389.471 86 385.305 86C381.138 86 377.846 87.25 375.43 89.75C373.096 92.1667 371.93 95.625 371.93 100.125V138H350.68V100.125C350.68 95.625 349.471 92.1667 347.055 89.75C344.721 87.25 341.471 86 337.305 86C333.138 86 329.846 87.25 327.43 89.75C325.096 92.1667 323.93 95.625 323.93 100.125V138H302.555V68.25H323.93V77C326.096 74.0833 328.93 71.7917 332.43 70.125C335.93 68.375 339.888 67.5 344.305 67.5C349.555 67.5 354.221 68.625 358.305 70.875C362.471 73.125 365.721 76.3333 368.055 80.5C370.471 76.6667 373.763 73.5417 377.93 71.125C382.096 68.7083 386.638 67.5 391.555 67.5ZM456.254 78.125C458.337 74.875 461.212 72.25 464.879 70.25C468.546 68.25 472.837 67.25 477.754 67.25C483.504 67.25 488.712 68.7083 493.379 71.625C498.046 74.5417 501.712 78.7083 504.379 84.125C507.129 89.5417 508.504 95.8333 508.504 103C508.504 110.167 507.129 116.5 504.379 122C501.712 127.417 498.046 131.625 493.379 134.625C488.712 137.542 483.504 139 477.754 139C472.921 139 468.629 138 464.879 136C461.212 134 458.337 131.417 456.254 128.25V171.25H434.879V68.25H456.254V78.125ZM486.754 103C486.754 97.6667 485.254 93.5 482.254 90.5C479.337 87.4167 475.712 85.875 471.379 85.875C467.129 85.875 463.504 87.4167 460.504 90.5C457.587 93.5833 456.129 97.7917 456.129 103.125C456.129 108.458 457.587 112.667 460.504 115.75C463.504 118.833 467.129 120.375 471.379 120.375C475.629 120.375 479.254 118.833 482.254 115.75C485.254 112.583 486.754 108.333 486.754 103ZM515.468 103C515.468 95.8333 516.801 89.5417 519.468 84.125C522.218 78.7083 525.926 74.5417 530.593 71.625C535.259 68.7083 540.468 67.25 546.218 67.25C551.134 67.25 555.426 68.25 559.093 70.25C562.843 72.25 565.718 74.875 567.718 78.125V68.25H589.093V138H567.718V128.125C565.634 131.375 562.718 134 558.968 136C555.301 138 551.009 139 546.093 139C540.426 139 535.259 137.542 530.593 134.625C525.926 131.625 522.218 127.417 519.468 122C516.801 116.5 515.468 110.167 515.468 103ZM567.718 103.125C567.718 97.7917 566.218 93.5833 563.218 90.5C560.301 87.4167 556.718 85.875 552.468 85.875C548.218 85.875 544.593 87.4167 541.593 90.5C538.676 93.5 537.218 97.6667 537.218 103C537.218 108.333 538.676 112.583 541.593 115.75C544.593 118.833 548.218 120.375 552.468 120.375C556.718 120.375 560.301 118.833 563.218 115.75C566.218 112.667 567.718 108.458 567.718 103.125ZM647.057 67.5C655.223 67.5 661.723 70.1667 666.557 75.5C671.473 80.75 673.932 88 673.932 97.25V138H652.682V100.125C652.682 95.4583 651.473 91.8333 649.057 89.25C646.64 86.6667 643.39 85.375 639.307 85.375C635.223 85.375 631.973 86.6667 629.557 89.25C627.14 91.8333 625.932 95.4583 625.932 100.125V138H604.557V68.25H625.932V77.5C628.098 74.4167 631.015 72 634.682 70.25C638.348 68.4167 642.473 67.5 647.057 67.5ZM760.035 68.25L716.285 171.125H693.285L709.285 135.625L680.91 68.25H704.785L720.91 111.875L736.91 68.25H760.035Z" fill="#edecf0"/>
</svg>
