<svg width="771" height="188" viewBox="0 0 771 188" fill="none" xmlns="http://www.w3.org/2000/svg">
<rect x="2" y="138" width="30" height="98" transform="rotate(-90 2 138)" fill="#24242d"/>
<rect x="55" y="94" width="40" height="40" transform="rotate(-90 55 94)" fill="#24242d"/>
<rect x="55" y="94" width="40" height="40" transform="rotate(-90 55 94)" fill="#24242d"/>
<rect x="55" y="94" width="40" height="40" transform="rotate(-90 55 94)" fill="#24242d"/>
<circle cx="20" cy="74" r="20" fill="#24242d"/>
<path d="M134.125 94C134.125 85.3333 136 77.625 139.75 70.875C143.5 64.0417 148.708 58.75 155.375 55C162.125 51.1667 169.75 49.25 178.25 49.25C188.667 49.25 197.583 52 205 57.5C212.417 63 217.375 70.5 219.875 80H196.375C194.625 76.3333 192.125 73.5417 188.875 71.625C185.708 69.7083 182.083 68.75 178 68.75C171.417 68.75 166.083 71.0417 162 75.625C157.917 80.2083 155.875 86.3333 155.875 94C155.875 101.667 157.917 107.792 162 112.375C166.083 116.958 171.417 119.25 178 119.25C182.083 119.25 185.708 118.292 188.875 116.375C192.125 114.458 194.625 111.667 196.375 108H219.875C217.375 117.5 212.417 125 205 130.5C197.583 135.917 188.667 138.625 178.25 138.625C169.75 138.625 162.125 136.75 155.375 133C148.708 129.167 143.5 123.875 139.75 117.125C136 110.375 134.125 102.667 134.125 94ZM264.715 139C257.882 139 251.715 137.542 246.215 134.625C240.798 131.708 236.507 127.542 233.34 122.125C230.257 116.708 228.715 110.375 228.715 103.125C228.715 95.9583 230.298 89.6667 233.465 84.25C236.632 78.75 240.965 74.5417 246.465 71.625C251.965 68.7083 258.132 67.25 264.965 67.25C271.798 67.25 277.965 68.7083 283.465 71.625C288.965 74.5417 293.298 78.75 296.465 84.25C299.632 89.6667 301.215 95.9583 301.215 103.125C301.215 110.292 299.59 116.625 296.34 122.125C293.173 127.542 288.798 131.708 283.215 134.625C277.715 137.542 271.548 139 264.715 139ZM264.715 120.5C268.798 120.5 272.257 119 275.09 116C278.007 113 279.465 108.708 279.465 103.125C279.465 97.5417 278.048 93.25 275.215 90.25C272.465 87.25 269.048 85.75 264.965 85.75C260.798 85.75 257.34 87.25 254.59 90.25C251.84 93.1667 250.465 97.4583 250.465 103.125C250.465 108.708 251.798 113 254.465 116C257.215 119 260.632 120.5 264.715 120.5ZM401.555 67.5C410.221 67.5 417.096 70.125 422.18 75.375C427.346 80.625 429.93 87.9167 429.93 97.25V138H408.68V100.125C408.68 95.625 407.471 92.1667 405.055 89.75C402.721 87.25 399.471 86 395.305 86C391.138 86 387.846 87.25 385.43 89.75C383.096 92.1667 381.93 95.625 381.93 100.125V138H360.68V100.125C360.68 95.625 359.471 92.1667 357.055 89.75C354.721 87.25 351.471 86 347.305 86C343.138 86 339.846 87.25 337.43 89.75C335.096 92.1667 333.93 95.625 333.93 100.125V138H312.555V68.25H333.93V77C336.096 74.0833 338.93 71.7917 342.43 70.125C345.93 68.375 349.888 67.5 354.305 67.5C359.555 67.5 364.221 68.625 368.305 70.875C372.471 73.125 375.721 76.3333 378.055 80.5C380.471 76.6667 383.763 73.5417 387.93 71.125C392.096 68.7083 396.638 67.5 401.555 67.5ZM466.254 78.125C468.337 74.875 471.212 72.25 474.879 70.25C478.546 68.25 482.837 67.25 487.754 67.25C493.504 67.25 498.712 68.7083 503.379 71.625C508.046 74.5417 511.712 78.7083 514.379 84.125C517.129 89.5417 518.504 95.8333 518.504 103C518.504 110.167 517.129 116.5 514.379 122C511.712 127.417 508.046 131.625 503.379 134.625C498.712 137.542 493.504 139 487.754 139C482.921 139 478.629 138 474.879 136C471.212 134 468.337 131.417 466.254 128.25V171.25H444.879V68.25H466.254V78.125ZM496.754 103C496.754 97.6667 495.254 93.5 492.254 90.5C489.337 87.4167 485.712 85.875 481.379 85.875C477.129 85.875 473.504 87.4167 470.504 90.5C467.587 93.5833 466.129 97.7917 466.129 103.125C466.129 108.458 467.587 112.667 470.504 115.75C473.504 118.833 477.129 120.375 481.379 120.375C485.629 120.375 489.254 118.833 492.254 115.75C495.254 112.583 496.754 108.333 496.754 103ZM525.468 103C525.468 95.8333 526.801 89.5417 529.468 84.125C532.218 78.7083 535.926 74.5417 540.593 71.625C545.259 68.7083 550.468 67.25 556.218 67.25C561.134 67.25 565.426 68.25 569.093 70.25C572.843 72.25 575.718 74.875 577.718 78.125V68.25H599.093V138H577.718V128.125C575.634 131.375 572.718 134 568.968 136C565.301 138 561.009 139 556.093 139C550.426 139 545.259 137.542 540.593 134.625C535.926 131.625 532.218 127.417 529.468 122C526.801 116.5 525.468 110.167 525.468 103ZM577.718 103.125C577.718 97.7917 576.218 93.5833 573.218 90.5C570.301 87.4167 566.718 85.875 562.468 85.875C558.218 85.875 554.593 87.4167 551.593 90.5C548.676 93.5 547.218 97.6667 547.218 103C547.218 108.333 548.676 112.583 551.593 115.75C554.593 118.833 558.218 120.375 562.468 120.375C566.718 120.375 570.301 118.833 573.218 115.75C576.218 112.667 577.718 108.458 577.718 103.125ZM657.057 67.5C665.223 67.5 671.723 70.1667 676.557 75.5C681.473 80.75 683.932 88 683.932 97.25V138H662.682V100.125C662.682 95.4583 661.473 91.8333 659.057 89.25C656.64 86.6667 653.39 85.375 649.307 85.375C645.223 85.375 641.973 86.6667 639.557 89.25C637.14 91.8333 635.932 95.4583 635.932 100.125V138H614.557V68.25H635.932V77.5C638.098 74.4167 641.015 72 644.682 70.25C648.348 68.4167 652.473 67.5 657.057 67.5ZM770.035 68.25L726.285 171.125H703.285L719.285 135.625L690.91 68.25H714.785L730.91 111.875L746.91 68.25H770.035Z" fill="#24242d"/>
</svg>
