<svg width="746" height="188" viewBox="0 0 746 188" fill="none" xmlns="http://www.w3.org/2000/svg">
<rect x="45" y="45" width="30" height="98" fill="#24242d"/>
<circle cx="22.5" cy="71.5" r="22.5" fill="#24242d"/>
<path d="M109.125 94C109.125 85.3333 111 77.625 114.75 70.875C118.5 64.0417 123.708 58.75 130.375 55C137.125 51.1667 144.75 49.25 153.25 49.25C163.667 49.25 172.583 52 180 57.5C187.417 63 192.375 70.5 194.875 80H171.375C169.625 76.3333 167.125 73.5417 163.875 71.625C160.708 69.7083 157.083 68.75 153 68.75C146.417 68.75 141.083 71.0417 137 75.625C132.917 80.2083 130.875 86.3333 130.875 94C130.875 101.667 132.917 107.792 137 112.375C141.083 116.958 146.417 119.25 153 119.25C157.083 119.25 160.708 118.292 163.875 116.375C167.125 114.458 169.625 111.667 171.375 108H194.875C192.375 117.5 187.417 125 180 130.5C172.583 135.917 163.667 138.625 153.25 138.625C144.75 138.625 137.125 136.75 130.375 133C123.708 129.167 118.5 123.875 114.75 117.125C111 110.375 109.125 102.667 109.125 94ZM239.715 139C232.882 139 226.715 137.542 221.215 134.625C215.798 131.708 211.507 127.542 208.34 122.125C205.257 116.708 203.715 110.375 203.715 103.125C203.715 95.9583 205.298 89.6667 208.465 84.25C211.632 78.75 215.965 74.5417 221.465 71.625C226.965 68.7083 233.132 67.25 239.965 67.25C246.798 67.25 252.965 68.7083 258.465 71.625C263.965 74.5417 268.298 78.75 271.465 84.25C274.632 89.6667 276.215 95.9583 276.215 103.125C276.215 110.292 274.59 116.625 271.34 122.125C268.173 127.542 263.798 131.708 258.215 134.625C252.715 137.542 246.548 139 239.715 139ZM239.715 120.5C243.798 120.5 247.257 119 250.09 116C253.007 113 254.465 108.708 254.465 103.125C254.465 97.5417 253.048 93.25 250.215 90.25C247.465 87.25 244.048 85.75 239.965 85.75C235.798 85.75 232.34 87.25 229.59 90.25C226.84 93.1667 225.465 97.4583 225.465 103.125C225.465 108.708 226.798 113 229.465 116C232.215 119 235.632 120.5 239.715 120.5ZM376.555 67.5C385.221 67.5 392.096 70.125 397.18 75.375C402.346 80.625 404.93 87.9167 404.93 97.25V138H383.68V100.125C383.68 95.625 382.471 92.1667 380.055 89.75C377.721 87.25 374.471 86 370.305 86C366.138 86 362.846 87.25 360.43 89.75C358.096 92.1667 356.93 95.625 356.93 100.125V138H335.68V100.125C335.68 95.625 334.471 92.1667 332.055 89.75C329.721 87.25 326.471 86 322.305 86C318.138 86 314.846 87.25 312.43 89.75C310.096 92.1667 308.93 95.625 308.93 100.125V138H287.555V68.25H308.93V77C311.096 74.0833 313.93 71.7917 317.43 70.125C320.93 68.375 324.888 67.5 329.305 67.5C334.555 67.5 339.221 68.625 343.305 70.875C347.471 73.125 350.721 76.3333 353.055 80.5C355.471 76.6667 358.763 73.5417 362.93 71.125C367.096 68.7083 371.638 67.5 376.555 67.5ZM441.254 78.125C443.337 74.875 446.212 72.25 449.879 70.25C453.546 68.25 457.837 67.25 462.754 67.25C468.504 67.25 473.712 68.7083 478.379 71.625C483.046 74.5417 486.712 78.7083 489.379 84.125C492.129 89.5417 493.504 95.8333 493.504 103C493.504 110.167 492.129 116.5 489.379 122C486.712 127.417 483.046 131.625 478.379 134.625C473.712 137.542 468.504 139 462.754 139C457.921 139 453.629 138 449.879 136C446.212 134 443.337 131.417 441.254 128.25V171.25H419.879V68.25H441.254V78.125ZM471.754 103C471.754 97.6667 470.254 93.5 467.254 90.5C464.337 87.4167 460.712 85.875 456.379 85.875C452.129 85.875 448.504 87.4167 445.504 90.5C442.587 93.5833 441.129 97.7917 441.129 103.125C441.129 108.458 442.587 112.667 445.504 115.75C448.504 118.833 452.129 120.375 456.379 120.375C460.629 120.375 464.254 118.833 467.254 115.75C470.254 112.583 471.754 108.333 471.754 103ZM500.468 103C500.468 95.8333 501.801 89.5417 504.468 84.125C507.218 78.7083 510.926 74.5417 515.593 71.625C520.259 68.7083 525.468 67.25 531.218 67.25C536.134 67.25 540.426 68.25 544.093 70.25C547.843 72.25 550.718 74.875 552.718 78.125V68.25H574.093V138H552.718V128.125C550.634 131.375 547.718 134 543.968 136C540.301 138 536.009 139 531.093 139C525.426 139 520.259 137.542 515.593 134.625C510.926 131.625 507.218 127.417 504.468 122C501.801 116.5 500.468 110.167 500.468 103ZM552.718 103.125C552.718 97.7917 551.218 93.5833 548.218 90.5C545.301 87.4167 541.718 85.875 537.468 85.875C533.218 85.875 529.593 87.4167 526.593 90.5C523.676 93.5 522.218 97.6667 522.218 103C522.218 108.333 523.676 112.583 526.593 115.75C529.593 118.833 533.218 120.375 537.468 120.375C541.718 120.375 545.301 118.833 548.218 115.75C551.218 112.667 552.718 108.458 552.718 103.125ZM632.057 67.5C640.223 67.5 646.723 70.1667 651.557 75.5C656.473 80.75 658.932 88 658.932 97.25V138H637.682V100.125C637.682 95.4583 636.473 91.8333 634.057 89.25C631.64 86.6667 628.39 85.375 624.307 85.375C620.223 85.375 616.973 86.6667 614.557 89.25C612.14 91.8333 610.932 95.4583 610.932 100.125V138H589.557V68.25H610.932V77.5C613.098 74.4167 616.015 72 619.682 70.25C623.348 68.4167 627.473 67.5 632.057 67.5ZM745.035 68.25L701.285 171.125H678.285L694.285 135.625L665.91 68.25H689.785L705.91 111.875L721.91 68.25H745.035Z" fill="#24242d"/>
</svg>
