<svg width="775" height="188" viewBox="0 0 775 188" fill="none" xmlns="http://www.w3.org/2000/svg">
<rect y="93.5685" width="80" height="80" rx="15" transform="rotate(-45 0 93.5685)" fill="#24242d"/>
<path d="M138.125 94C138.125 85.3333 140 77.625 143.75 70.875C147.5 64.0417 152.708 58.75 159.375 55C166.125 51.1667 173.75 49.25 182.25 49.25C192.667 49.25 201.583 52 209 57.5C216.417 63 221.375 70.5 223.875 80H200.375C198.625 76.3333 196.125 73.5417 192.875 71.625C189.708 69.7083 186.083 68.75 182 68.75C175.417 68.75 170.083 71.0417 166 75.625C161.917 80.2083 159.875 86.3333 159.875 94C159.875 101.667 161.917 107.792 166 112.375C170.083 116.958 175.417 119.25 182 119.25C186.083 119.25 189.708 118.292 192.875 116.375C196.125 114.458 198.625 111.667 200.375 108H223.875C221.375 117.5 216.417 125 209 130.5C201.583 135.917 192.667 138.625 182.25 138.625C173.75 138.625 166.125 136.75 159.375 133C152.708 129.167 147.5 123.875 143.75 117.125C140 110.375 138.125 102.667 138.125 94ZM268.715 139C261.882 139 255.715 137.542 250.215 134.625C244.798 131.708 240.507 127.542 237.34 122.125C234.257 116.708 232.715 110.375 232.715 103.125C232.715 95.9583 234.298 89.6667 237.465 84.25C240.632 78.75 244.965 74.5417 250.465 71.625C255.965 68.7083 262.132 67.25 268.965 67.25C275.798 67.25 281.965 68.7083 287.465 71.625C292.965 74.5417 297.298 78.75 300.465 84.25C303.632 89.6667 305.215 95.9583 305.215 103.125C305.215 110.292 303.59 116.625 300.34 122.125C297.173 127.542 292.798 131.708 287.215 134.625C281.715 137.542 275.548 139 268.715 139ZM268.715 120.5C272.798 120.5 276.257 119 279.09 116C282.007 113 283.465 108.708 283.465 103.125C283.465 97.5417 282.048 93.25 279.215 90.25C276.465 87.25 273.048 85.75 268.965 85.75C264.798 85.75 261.34 87.25 258.59 90.25C255.84 93.1667 254.465 97.4583 254.465 103.125C254.465 108.708 255.798 113 258.465 116C261.215 119 264.632 120.5 268.715 120.5ZM405.555 67.5C414.221 67.5 421.096 70.125 426.18 75.375C431.346 80.625 433.93 87.9167 433.93 97.25V138H412.68V100.125C412.68 95.625 411.471 92.1667 409.055 89.75C406.721 87.25 403.471 86 399.305 86C395.138 86 391.846 87.25 389.43 89.75C387.096 92.1667 385.93 95.625 385.93 100.125V138H364.68V100.125C364.68 95.625 363.471 92.1667 361.055 89.75C358.721 87.25 355.471 86 351.305 86C347.138 86 343.846 87.25 341.43 89.75C339.096 92.1667 337.93 95.625 337.93 100.125V138H316.555V68.25H337.93V77C340.096 74.0833 342.93 71.7917 346.43 70.125C349.93 68.375 353.888 67.5 358.305 67.5C363.555 67.5 368.221 68.625 372.305 70.875C376.471 73.125 379.721 76.3333 382.055 80.5C384.471 76.6667 387.763 73.5417 391.93 71.125C396.096 68.7083 400.638 67.5 405.555 67.5ZM470.254 78.125C472.337 74.875 475.212 72.25 478.879 70.25C482.546 68.25 486.837 67.25 491.754 67.25C497.504 67.25 502.712 68.7083 507.379 71.625C512.046 74.5417 515.712 78.7083 518.379 84.125C521.129 89.5417 522.504 95.8333 522.504 103C522.504 110.167 521.129 116.5 518.379 122C515.712 127.417 512.046 131.625 507.379 134.625C502.712 137.542 497.504 139 491.754 139C486.921 139 482.629 138 478.879 136C475.212 134 472.337 131.417 470.254 128.25V171.25H448.879V68.25H470.254V78.125ZM500.754 103C500.754 97.6667 499.254 93.5 496.254 90.5C493.337 87.4167 489.712 85.875 485.379 85.875C481.129 85.875 477.504 87.4167 474.504 90.5C471.587 93.5833 470.129 97.7917 470.129 103.125C470.129 108.458 471.587 112.667 474.504 115.75C477.504 118.833 481.129 120.375 485.379 120.375C489.629 120.375 493.254 118.833 496.254 115.75C499.254 112.583 500.754 108.333 500.754 103ZM529.468 103C529.468 95.8333 530.801 89.5417 533.468 84.125C536.218 78.7083 539.926 74.5417 544.593 71.625C549.259 68.7083 554.468 67.25 560.218 67.25C565.134 67.25 569.426 68.25 573.093 70.25C576.843 72.25 579.718 74.875 581.718 78.125V68.25H603.093V138H581.718V128.125C579.634 131.375 576.718 134 572.968 136C569.301 138 565.009 139 560.093 139C554.426 139 549.259 137.542 544.593 134.625C539.926 131.625 536.218 127.417 533.468 122C530.801 116.5 529.468 110.167 529.468 103ZM581.718 103.125C581.718 97.7917 580.218 93.5833 577.218 90.5C574.301 87.4167 570.718 85.875 566.468 85.875C562.218 85.875 558.593 87.4167 555.593 90.5C552.676 93.5 551.218 97.6667 551.218 103C551.218 108.333 552.676 112.583 555.593 115.75C558.593 118.833 562.218 120.375 566.468 120.375C570.718 120.375 574.301 118.833 577.218 115.75C580.218 112.667 581.718 108.458 581.718 103.125ZM661.057 67.5C669.223 67.5 675.723 70.1667 680.557 75.5C685.473 80.75 687.932 88 687.932 97.25V138H666.682V100.125C666.682 95.4583 665.473 91.8333 663.057 89.25C660.64 86.6667 657.39 85.375 653.307 85.375C649.223 85.375 645.973 86.6667 643.557 89.25C641.14 91.8333 639.932 95.4583 639.932 100.125V138H618.557V68.25H639.932V77.5C642.098 74.4167 645.015 72 648.682 70.25C652.348 68.4167 656.473 67.5 661.057 67.5ZM774.035 68.25L730.285 171.125H707.285L723.285 135.625L694.91 68.25H718.785L734.91 111.875L750.91 68.25H774.035Z" fill="#24242d"/>
</svg>
