<svg id="bold" enable-background="new 0 0 24 24" height="150" viewBox="0 0 24 24" width="150" xmlns="http://www.w3.org/2000/svg" fill="#feffff"><path d="m14.25 0h-11.5c-1.52 0-2.75 1.23-2.75 2.75v15.5c0 1.52 1.23 2.75 2.75 2.75h4.9c.1-.4.28-.78.51-1.13l5.22-8.48c.67-1.15 1.97-1.89 3.37-1.89.08 0 .17 0 .25.01v-6.76c0-1.52-1.23-2.75-2.75-2.75zm-10.25 4h4c.55 0 1 .45 1 1s-.45 1-1 1h-4c-.55 0-1-.45-1-1s.45-1 1-1zm5 10h-5c-.55 0-1-.45-1-1s.45-1 1-1h5c.55 0 1 .45 1 1s-.45 1-1 1zm4-4h-9c-.55 0-1-.45-1-1s.45-1 1-1h9c.55 0 1 .45 1 1s-.45 1-1 1z"/><path d="m23.707 21.024-5.278-8.574c-.345-.586-.989-.95-1.679-.95s-1.334.364-1.669.934l-5.266 8.556c-.206.306-.315.671-.315 1.055 0 1.078.88 1.955 1.962 1.955h10.576c1.082 0 1.962-.877 1.962-1.955 0-.384-.109-.749-.293-1.021zm-6.957.976c-.552 0-1-.448-1-1s.448-1 1-1 1 .448 1 1-.448 1-1 1zm1-3.5c0 .552-.447 1-1 1s-1-.448-1-1v-2c0-.552.447-1 1-1s1 .448 1 1z"/></svg>