<svg width="542" height="272" viewBox="0 0 542 272" fill="none" xmlns="http://www.w3.org/2000/svg">
<path d="M155.229 183.025H104.008C102.499 183.028 101.277 184.194 101.279 185.63V262.675H157.964V185.63C157.965 184.192 156.742 183.026 155.231 183.025H155.229V183.025ZM129.79 226.801C126.457 226.786 123.758 224.216 123.742 221.042V212.156C123.742 208.975 126.45 206.396 129.79 206.396C133.131 206.396 135.839 208.975 135.839 212.156V221.042C135.823 224.216 133.124 226.786 129.79 226.801Z" fill="#DFE2E9"/>
<path d="M101.103 260.211V267.644C101.105 268.446 101.787 269.096 102.629 269.097H156.614C157.455 269.093 158.136 268.445 158.14 267.644V260.211H101.103Z" fill="#3F3D56"/>
<path d="M240.046 62.7891H21.0962C17.1797 62.795 14.0063 65.8167 14 69.5459V210.228C14.0038 213.958 17.1786 216.981 21.0962 216.985H240.046C243.963 216.981 247.138 213.958 247.142 210.228V69.5459C247.136 65.8167 243.962 62.795 240.046 62.7891V62.7891Z" fill="#E8EAEE"/>
<path d="M238.218 67.6699H22.9254C20.8283 67.6743 19.1306 69.2942 19.1304 71.291V208.486C19.134 210.48 20.831 212.096 22.9254 212.1H238.218C240.313 212.096 242.01 210.48 242.013 208.486V71.291C242.013 69.2942 240.315 67.6743 238.218 67.6699Z" fill="white"/>
<path d="M196.283 271.684H68.1951C66.8938 271.684 65.8389 270.679 65.8389 269.44C65.8389 269.285 65.8558 269.13 65.8894 268.978L67.8769 259.99C68.1099 258.954 69.0695 258.213 70.1822 258.209H194.295C195.408 258.213 196.368 258.954 196.601 259.99L198.588 268.978C198.856 270.191 198.041 271.381 196.768 271.636C196.608 271.668 196.446 271.684 196.283 271.684Z" fill="#CED0D7"/>
<path d="M74.5466 259.827H71.582C71.3113 259.827 71.0918 260.036 71.0918 260.294V261.614C71.0918 261.872 71.3113 262.081 71.582 262.081H74.5466C74.8173 262.081 75.0368 261.872 75.0368 261.614V260.294C75.0368 260.036 74.8173 259.827 74.5466 259.827Z" fill="#E8EAEE"/>
<path d="M82.4367 259.827H79.4722C79.2014 259.827 78.9819 260.036 78.9819 260.294V261.614C78.9819 261.872 79.2014 262.081 79.4722 262.081H82.4367C82.7074 262.081 82.9269 261.872 82.9269 261.614V260.294C82.9269 260.036 82.7074 259.827 82.4367 259.827Z" fill="#E8EAEE"/>
<path d="M90.3268 259.827H87.3623C87.0916 259.827 86.8721 260.036 86.8721 260.294V261.614C86.8721 261.872 87.0916 262.081 87.3623 262.081H90.3268C90.5976 262.081 90.8171 261.872 90.8171 261.614V260.294C90.8171 260.036 90.5976 259.827 90.3268 259.827Z" fill="#E8EAEE"/>
<path d="M98.2167 259.827H95.2522C94.9815 259.827 94.762 260.036 94.762 260.294V261.614C94.762 261.872 94.9815 262.081 95.2522 262.081H98.2167C98.4875 262.081 98.707 261.872 98.707 261.614V260.294C98.707 260.036 98.4875 259.827 98.2167 259.827Z" fill="#E8EAEE"/>
<path d="M106.107 259.827H103.142C102.871 259.827 102.652 260.036 102.652 260.294V261.614C102.652 261.872 102.871 262.081 103.142 262.081H106.107C106.377 262.081 106.597 261.872 106.597 261.614V260.294C106.597 260.036 106.377 259.827 106.107 259.827Z" fill="#E8EAEE"/>
<path d="M113.996 259.827H111.032C110.761 259.827 110.542 260.036 110.542 260.294V261.614C110.542 261.872 110.761 262.081 111.032 262.081H113.996C114.267 262.081 114.487 261.872 114.487 261.614V260.294C114.487 260.036 114.267 259.827 113.996 259.827Z" fill="#E8EAEE"/>
<path d="M121.886 259.827H118.922C118.651 259.827 118.432 260.036 118.432 260.294V261.614C118.432 261.872 118.651 262.081 118.922 262.081H121.886C122.157 262.081 122.377 261.872 122.377 261.614V260.294C122.377 260.036 122.157 259.827 121.886 259.827Z" fill="#E8EAEE"/>
<path d="M129.776 259.827H126.812C126.541 259.827 126.322 260.036 126.322 260.294V261.614C126.322 261.872 126.541 262.081 126.812 262.081H129.776C130.047 262.081 130.267 261.872 130.267 261.614V260.294C130.267 260.036 130.047 259.827 129.776 259.827Z" fill="#E8EAEE"/>
<path d="M137.666 259.827H134.702C134.431 259.827 134.212 260.036 134.212 260.294V261.614C134.212 261.872 134.431 262.081 134.702 262.081H137.666C137.937 262.081 138.157 261.872 138.157 261.614V260.294C138.157 260.036 137.937 259.827 137.666 259.827Z" fill="#E8EAEE"/>
<path d="M145.556 259.827H142.592C142.321 259.827 142.102 260.036 142.102 260.294V261.614C142.102 261.872 142.321 262.081 142.592 262.081H145.556C145.827 262.081 146.047 261.872 146.047 261.614V260.294C146.047 260.036 145.827 259.827 145.556 259.827Z" fill="#E8EAEE"/>
<path d="M153.446 259.827H150.482C150.211 259.827 149.991 260.036 149.991 260.294V261.614C149.991 261.872 150.211 262.081 150.482 262.081H153.446C153.717 262.081 153.936 261.872 153.936 261.614V260.294C153.936 260.036 153.717 259.827 153.446 259.827Z" fill="#E8EAEE"/>
<path d="M161.336 259.827H158.372C158.101 259.827 157.881 260.036 157.881 260.294V261.614C157.881 261.872 158.101 262.081 158.372 262.081H161.336C161.607 262.081 161.826 261.872 161.826 261.614V260.294C161.826 260.036 161.607 259.827 161.336 259.827Z" fill="#E8EAEE"/>
<path d="M169.226 259.827H166.262C165.991 259.827 165.771 260.036 165.771 260.294V261.614C165.771 261.872 165.991 262.081 166.262 262.081H169.226C169.497 262.081 169.716 261.872 169.716 261.614V260.294C169.716 260.036 169.497 259.827 169.226 259.827Z" fill="#E8EAEE"/>
<path d="M177.116 259.827H174.151C173.881 259.827 173.661 260.036 173.661 260.294V261.614C173.661 261.872 173.881 262.081 174.151 262.081H177.116C177.387 262.081 177.606 261.872 177.606 261.614V260.294C177.606 260.036 177.387 259.827 177.116 259.827Z" fill="#E8EAEE"/>
<path d="M185.006 259.827H182.042C181.771 259.827 181.551 260.036 181.551 260.294V261.614C181.551 261.872 181.771 262.081 182.042 262.081H185.006C185.277 262.081 185.496 261.872 185.496 261.614V260.294C185.496 260.036 185.277 259.827 185.006 259.827Z" fill="#E8EAEE"/>
<path d="M192.896 259.827H189.931C189.661 259.827 189.441 260.036 189.441 260.294V261.614C189.441 261.872 189.661 262.081 189.931 262.081H192.896C193.167 262.081 193.386 261.872 193.386 261.614V260.294C193.386 260.036 193.167 259.827 192.896 259.827Z" fill="#E8EAEE"/>
<path d="M74.4537 263.583H71.4893C71.2185 263.583 70.999 263.792 70.999 264.05V265.37C70.999 265.628 71.2185 265.837 71.4893 265.837H74.4537C74.7245 265.837 74.944 265.628 74.944 265.37V264.05C74.944 263.792 74.7245 263.583 74.4537 263.583Z" fill="#E8EAEE"/>
<path d="M82.3434 263.583H79.3789C79.1082 263.583 78.8887 263.792 78.8887 264.05V265.37C78.8887 265.628 79.1082 265.837 79.3789 265.837H82.3434C82.6141 265.837 82.8336 265.628 82.8336 265.37V264.05C82.8336 263.792 82.6141 263.583 82.3434 263.583Z" fill="#E8EAEE"/>
<path d="M90.2335 263.583H87.2691C86.9983 263.583 86.7788 263.792 86.7788 264.05V265.37C86.7788 265.628 86.9983 265.837 87.2691 265.837H90.2335C90.5043 265.837 90.7238 265.628 90.7238 265.37V264.05C90.7238 263.792 90.5043 263.583 90.2335 263.583Z" fill="#E8EAEE"/>
<path d="M98.1234 263.583H95.159C94.8882 263.583 94.6687 263.792 94.6687 264.05V265.37C94.6687 265.628 94.8882 265.837 95.159 265.837H98.1234C98.3942 265.837 98.6137 265.628 98.6137 265.37V264.05C98.6137 263.792 98.3942 263.583 98.1234 263.583Z" fill="#E8EAEE"/>
<path d="M106.013 263.583H103.049C102.778 263.583 102.559 263.792 102.559 264.05V265.37C102.559 265.628 102.778 265.837 103.049 265.837H106.013C106.284 265.837 106.504 265.628 106.504 265.37V264.05C106.504 263.792 106.284 263.583 106.013 263.583Z" fill="#E8EAEE"/>
<path d="M113.903 263.583H110.939C110.668 263.583 110.448 263.792 110.448 264.05V265.37C110.448 265.628 110.668 265.837 110.939 265.837H113.903C114.174 265.837 114.393 265.628 114.393 265.37V264.05C114.393 263.792 114.174 263.583 113.903 263.583Z" fill="#E8EAEE"/>
<path d="M121.793 263.583H118.829C118.558 263.583 118.338 263.792 118.338 264.05V265.37C118.338 265.628 118.558 265.837 118.829 265.837H121.793C122.064 265.837 122.283 265.628 122.283 265.37V264.05C122.283 263.792 122.064 263.583 121.793 263.583Z" fill="#E8EAEE"/>
<path d="M129.683 263.583H126.719C126.448 263.583 126.229 263.792 126.229 264.05V265.37C126.229 265.628 126.448 265.837 126.719 265.837H129.683C129.954 265.837 130.174 265.628 130.174 265.37V264.05C130.174 263.792 129.954 263.583 129.683 263.583Z" fill="#E8EAEE"/>
<path d="M137.573 263.583H134.609C134.338 263.583 134.118 263.792 134.118 264.05V265.37C134.118 265.628 134.338 265.837 134.609 265.837H137.573C137.844 265.837 138.063 265.628 138.063 265.37V264.05C138.063 263.792 137.844 263.583 137.573 263.583Z" fill="#E8EAEE"/>
<path d="M145.463 263.583H142.499C142.228 263.583 142.008 263.792 142.008 264.05V265.37C142.008 265.628 142.228 265.837 142.499 265.837H145.463C145.734 265.837 145.953 265.628 145.953 265.37V264.05C145.953 263.792 145.734 263.583 145.463 263.583Z" fill="#E8EAEE"/>
<path d="M153.353 263.583H150.388C150.118 263.583 149.898 263.792 149.898 264.05V265.37C149.898 265.628 150.118 265.837 150.388 265.837H153.353C153.624 265.837 153.843 265.628 153.843 265.37V264.05C153.843 263.792 153.624 263.583 153.353 263.583Z" fill="#E8EAEE"/>
<path d="M161.243 263.583H158.278C158.008 263.583 157.788 263.792 157.788 264.05V265.37C157.788 265.628 158.008 265.837 158.278 265.837H161.243C161.514 265.837 161.733 265.628 161.733 265.37V264.05C161.733 263.792 161.514 263.583 161.243 263.583Z" fill="#E8EAEE"/>
<path d="M169.133 263.583H166.168C165.898 263.583 165.678 263.792 165.678 264.05V265.37C165.678 265.628 165.898 265.837 166.168 265.837H169.133C169.404 265.837 169.623 265.628 169.623 265.37V264.05C169.623 263.792 169.404 263.583 169.133 263.583Z" fill="#E8EAEE"/>
<path d="M177.023 263.583H174.058C173.788 263.583 173.568 263.792 173.568 264.05V265.37C173.568 265.628 173.788 265.837 174.058 265.837H177.023C177.294 265.837 177.513 265.628 177.513 265.37V264.05C177.513 263.792 177.294 263.583 177.023 263.583Z" fill="#E8EAEE"/>
<path d="M184.913 263.583H181.948C181.678 263.583 181.458 263.792 181.458 264.05V265.37C181.458 265.628 181.678 265.837 181.948 265.837H184.913C185.183 265.837 185.403 265.628 185.403 265.37V264.05C185.403 263.792 185.183 263.583 184.913 263.583Z" fill="#E8EAEE"/>
<path d="M192.803 263.583H189.838C189.567 263.583 189.348 263.792 189.348 264.05V265.37C189.348 265.628 189.567 265.837 189.838 265.837H192.803C193.073 265.837 193.293 265.628 193.293 265.37V264.05C193.293 263.792 193.073 263.583 192.803 263.583Z" fill="#E8EAEE"/>
<path d="M139.94 268.091H109.361C109.09 268.091 108.871 268.3 108.871 268.558V269.878C108.871 270.136 109.09 270.345 109.361 270.345H139.94C140.211 270.345 140.43 270.136 140.43 269.878V268.558C140.43 268.3 140.211 268.091 139.94 268.091Z" fill="#E8EAEE"/>
<path d="M227.396 86.5725H25.9472C25.5048 86.5632 25.154 86.2142 25.1638 85.7929C25.1732 85.3847 25.5185 85.0559 25.9472 85.0469H227.396C227.838 85.0561 228.189 85.4052 228.179 85.8264C228.17 86.2347 227.824 86.5635 227.396 86.5725V86.5725Z" fill="#DCDCE5"/>
<path d="M141.66 205.152C144.253 205.152 146.355 203.106 146.355 200.582C146.355 198.058 144.253 196.012 141.66 196.012C139.067 196.012 136.965 198.058 136.965 200.582C136.965 203.106 139.067 205.152 141.66 205.152Z" fill="#D6D6D9"/>
<path d="M55.8784 81.1516C58.4713 81.1516 60.5733 79.1056 60.5733 76.5817C60.5733 74.0578 58.4713 72.0117 55.8784 72.0117C53.2856 72.0117 51.1836 74.0578 51.1836 76.5817C51.1836 79.1056 53.2856 81.1516 55.8784 81.1516Z" fill="#D6D6D9"/>
<path d="M72.0972 81.1516C74.6901 81.1516 76.7921 79.1056 76.7921 76.5817C76.7921 74.0578 74.6901 72.0117 72.0972 72.0117C69.5043 72.0117 67.4023 74.0578 67.4023 76.5817C67.4023 79.1056 69.5043 81.1516 72.0972 81.1516Z" fill="#D6D6D9"/>
<path d="M126.465 98.1383L125.814 96.3282L209.022 55.1621L209.672 56.9722L126.465 98.1383Z" fill="#3F3D56"/>
<path d="M377.521 174.387L376.87 172.577L426.938 131.619L427.588 133.428L377.521 174.387Z" fill="#3F3D56"/>
<path d="M281.326 183.922L198.118 142.755L198.769 140.945L281.976 182.111L281.326 183.922Z" fill="#3F3D56"/>
<path d="M323.92 155.275L275.14 79.0227L276.682 77.7959L325.461 154.049L323.92 155.275Z" fill="#3F3D56"/>
<path d="M448.047 67.7781H394.823C387.613 67.7781 381.769 62.2127 381.769 55.3475C381.769 48.4823 387.613 42.917 394.823 42.917H448.047C455.257 42.917 461.102 48.4823 461.102 55.3475C461.102 62.2127 455.257 67.7781 448.047 67.7781Z" fill="#5A09F3"/>
<path d="M514.326 140.449H461.102C453.892 140.449 448.047 134.884 448.047 128.018C448.047 121.153 453.892 115.588 461.102 115.588H514.326C521.536 115.588 527.381 121.153 527.381 128.018C527.381 134.884 521.536 140.449 514.326 140.449Z" fill="#5A09F3"/>
<path d="M428.267 191.695L380.76 191.488V189.575L428.267 189.783V191.695Z" fill="#3F3D56"/>
<path d="M514.326 203.558H461.102C453.892 203.558 448.047 197.993 448.047 191.128C448.047 184.263 453.892 178.697 461.102 178.697H514.326C521.536 178.697 527.381 184.263 527.381 191.128C527.381 197.993 521.536 203.558 514.326 203.558Z" fill="#5A09F3"/>
<path d="M358.671 194.991H305.448C298.238 194.991 292.393 189.426 292.393 182.56C292.393 175.695 298.238 170.13 305.448 170.13H358.671C365.881 170.13 371.726 175.695 371.726 182.56C371.726 189.426 365.881 194.991 358.671 194.991Z" fill="#5A09F3"/>
<path d="M286.368 66.8611H233.144C225.934 66.8611 220.089 61.2957 220.089 54.4305C220.089 47.5653 225.934 42 233.144 42H286.368C293.578 42 299.422 47.5653 299.422 54.4305C299.422 61.2957 293.578 66.8611 286.368 66.8611Z" fill="#5A09F3"/>
<path d="M173.255 183.517H86.9389C79.442 183.509 73.3667 177.724 73.3584 170.586V116.127C73.3667 108.989 79.4421 103.204 86.9389 103.196H173.255C180.752 103.204 186.827 108.989 186.835 116.127V170.586C186.827 177.724 180.752 183.509 173.255 183.517ZM86.9389 105.109C80.5508 105.116 75.3741 110.045 75.3668 116.127V170.586C75.3741 176.668 80.5509 181.597 86.9389 181.604H173.255C179.643 181.597 184.82 176.668 184.827 170.586V116.127C184.82 110.045 179.643 105.116 173.255 105.109L86.9389 105.109V105.109Z" fill="#E8EAEE"/>
<path d="M112.514 120.408H89.4258V122.321H112.514V120.408Z" fill="#E8EAEE"/>
<path d="M140.641 128.058H89.4258V129.97H140.641V128.058Z" fill="#E8EAEE"/>
<path d="M140.641 134.751H89.4258V136.663H140.641V134.751Z" fill="#E8EAEE"/>
<path d="M154.7 141.444H89.4258V143.357H154.7V141.444Z" fill="#E8EAEE"/>
<path d="M123.569 148.138H89.4258V150.05H123.569V148.138Z" fill="#E8EAEE"/>
<path d="M151.688 154.831H89.4258V156.743H151.688V154.831Z" fill="#E8EAEE"/>
<path d="M100.472 161.524H89.4258V163.437H100.472V161.524Z" fill="#E8EAEE"/>
<path d="M88.674 79.2522C88.5765 79.2522 88.4791 79.2162 88.4056 79.1447L86.2629 77.059C86.1201 76.9201 86.1201 76.698 86.2629 76.559L88.4056 74.4736C88.551 74.3325 88.789 74.3302 88.9366 74.468C89.0849 74.6061 89.0875 74.8325 88.9424 74.9736L87.0566 76.809L88.9424 78.6446C89.0875 78.7857 89.0849 79.0122 88.9366 79.1503C88.8636 79.2183 88.7688 79.2522 88.674 79.2522V79.2522Z" fill="#D6D6D9"/>
<path d="M92.2747 79.2515C92.1799 79.2515 92.0851 79.2176 92.0121 79.1495C91.8638 79.0114 91.8612 78.7852 92.0063 78.6439L93.8919 76.8083L92.0063 74.9729C91.8612 74.8318 91.8638 74.6054 92.0121 74.4673C92.1601 74.329 92.3981 74.3316 92.5432 74.4729L94.6856 76.5583C94.8285 76.6973 94.8285 76.9194 94.6856 77.0583L92.5432 79.1439C92.4696 79.2155 92.3722 79.2515 92.2747 79.2515V79.2515Z" fill="#D6D6D9"/>
<path d="M204.369 74.0752H200.385C199.93 74.0752 199.562 74.4256 199.562 74.8582V78.6555C199.562 79.0881 199.93 79.4385 200.385 79.4385H204.369C204.823 79.4385 205.195 79.0881 205.195 78.6555V74.8582C205.195 74.4256 204.823 74.0752 204.369 74.0752Z" fill="#D6D6D9"/>
<path d="M194.606 74.0752H190.622C190.167 74.0752 189.799 74.4256 189.799 74.8582V78.6555C189.799 79.0881 190.167 79.4385 190.622 79.4385H194.606C195.06 79.4385 195.432 79.0881 195.432 78.6555V74.8582C195.432 74.4256 195.06 74.0752 194.606 74.0752Z" fill="#D6D6D9"/>
<path d="M213.569 74.2539H209.585C209.131 74.2539 208.763 74.6043 208.763 75.037V78.8342C208.763 79.2668 209.131 79.6172 209.585 79.6172H213.569C214.024 79.6172 214.395 79.2668 214.395 78.8342V75.037C214.395 74.6043 214.024 74.2539 213.569 74.2539Z" fill="#D6D6D9"/>
<path d="M153.516 75.6992H121.669C121.113 75.6992 120.667 76.1283 120.667 76.6539C120.667 77.1795 121.113 77.6086 121.669 77.6086H153.516C154.068 77.6086 154.519 77.1795 154.519 76.6539C154.519 76.1283 154.068 75.6992 153.516 75.6992Z" fill="#D6D6D9"/>
</svg>
