<svg  xmlns="http://www.w3.org/2000/svg"  width="400" height="400" viewBox="0, 0, 400,400"><g><path id="path0" d="M68.400 18.598 L 68.400 25.200 112.610 25.200 L 156.820 25.200 156.710 18.700 L 156.600 12.200 112.500 12.098 L 68.400 11.996 68.400 18.598 M243.600 18.600 L 243.600 25.200 287.600 25.200 L 331.600 25.200 331.600 18.600 L 331.600 12.000 287.600 12.000 L 243.600 12.000 243.600 18.600 M18.800 81.200 C 18.470 81.413,17.705 81.591,17.100 81.594 C 16.495 81.597,16.000 81.780,16.000 82.000 C 16.000 82.220,15.728 82.400,15.395 82.400 C 14.839 82.400,13.276 83.123,12.800 83.601 C 12.690 83.711,12.071 84.071,11.424 84.401 C 9.886 85.185,3.600 91.464,3.600 92.217 C 3.600 92.538,3.453 92.800,3.274 92.800 C 2.875 92.800,1.200 95.872,1.200 96.604 C 1.200 96.895,0.975 97.208,0.700 97.300 C 0.011 97.530,-0.040 300.967,0.649 302.439 C 2.352 306.080,2.967 307.200,3.263 307.200 C 3.448 307.200,3.600 307.454,3.600 307.763 C 3.600 308.413,9.755 314.720,11.219 315.570 C 11.758 315.883,12.920 316.491,13.800 316.920 C 14.680 317.349,15.713 317.858,16.095 318.050 C 16.477 318.243,17.141 318.400,17.571 318.400 C 18.001 318.400,18.464 318.580,18.600 318.800 C 18.756 319.053,23.404 319.200,31.224 319.200 L 43.600 319.200 43.600 312.600 L 43.600 306.000 34.424 306.000 C 28.737 306.000,25.153 305.848,25.000 305.600 C 24.864 305.380,24.150 305.200,23.414 305.200 C 19.592 305.200,13.600 299.330,13.600 295.586 C 13.600 294.960,13.420 294.336,13.200 294.200 C 12.646 293.857,12.646 106.543,13.200 106.200 C 13.420 106.064,13.600 105.153,13.600 104.176 C 13.600 103.199,13.780 102.400,14.000 102.400 C 14.220 102.400,14.400 102.130,14.400 101.800 C 14.400 101.470,14.580 101.200,14.800 101.200 C 15.020 101.200,15.200 100.925,15.200 100.589 C 15.200 99.671,18.360 96.717,20.401 95.728 C 23.098 94.421,24.196 94.295,34.300 94.127 L 43.600 93.972 43.600 87.386 L 43.600 80.800 31.500 80.806 C 24.379 80.810,19.153 80.972,18.800 81.200 M181.378 81.314 C 181.268 81.600,181.228 84.527,181.289 87.818 L 181.400 93.800 200.110 93.904 L 218.820 94.008 218.710 87.504 L 218.600 81.000 200.089 80.896 C 185.167 80.812,181.539 80.893,181.378 81.314 M356.400 87.400 L 356.400 94.000 365.576 94.000 C 371.263 94.000,374.847 94.152,375.000 94.400 C 375.136 94.620,376.047 94.800,377.024 94.800 C 378.001 94.800,378.800 94.980,378.800 95.200 C 378.800 95.420,379.160 95.600,379.600 95.600 C 380.040 95.600,380.400 95.780,380.400 96.000 C 380.400 96.220,380.585 96.400,380.811 96.400 C 381.488 96.400,384.621 99.748,385.229 101.121 C 385.541 101.824,385.931 102.400,386.098 102.400 C 386.264 102.400,386.400 103.199,386.400 104.176 C 386.400 105.153,386.580 106.064,386.800 106.200 C 387.355 106.543,387.355 293.600,386.800 293.600 C 386.580 293.600,386.400 294.410,386.400 295.400 C 386.400 296.390,386.220 297.200,386.000 297.200 C 385.780 297.200,385.600 297.560,385.600 298.000 C 385.600 298.440,385.420 298.800,385.200 298.800 C 384.980 298.800,384.800 299.075,384.800 299.411 C 384.800 300.089,381.457 303.600,380.811 303.600 C 380.585 303.600,380.400 303.780,380.400 304.000 C 380.400 304.220,380.040 304.400,379.600 304.400 C 379.160 304.400,378.800 304.562,378.800 304.760 C 378.800 305.384,375.289 305.677,365.700 305.855 L 356.400 306.028 356.400 312.614 L 356.400 319.200 368.776 319.200 C 376.596 319.200,381.244 319.053,381.400 318.800 C 381.536 318.580,382.177 318.400,382.824 318.400 C 383.471 318.400,384.000 318.220,384.000 318.000 C 384.000 317.780,384.253 317.600,384.562 317.600 C 385.228 317.600,388.541 315.932,388.733 315.500 C 388.807 315.335,389.056 315.200,389.288 315.200 C 389.909 315.200,396.400 308.405,396.400 307.755 C 396.400 307.450,396.580 307.200,396.800 307.200 C 397.020 307.200,397.200 306.930,397.200 306.600 C 397.200 306.270,397.380 306.000,397.600 306.000 C 397.820 306.000,398.000 305.735,398.000 305.412 C 398.000 305.089,398.405 304.144,398.900 303.312 L 399.800 301.800 399.800 199.633 C 399.800 118.256,399.698 97.433,399.300 97.300 C 399.025 97.208,398.800 96.914,398.800 96.646 C 398.800 95.937,397.851 94.007,397.500 94.003 C 397.335 94.001,397.200 93.730,397.200 93.400 C 397.200 93.070,397.020 92.800,396.800 92.800 C 396.580 92.800,396.400 92.527,396.400 92.194 C 396.400 90.792,389.008 84.270,385.800 82.841 C 385.140 82.547,384.287 82.148,383.905 81.953 C 383.523 81.759,382.859 81.600,382.429 81.600 C 381.999 81.600,381.536 81.420,381.400 81.200 C 381.244 80.947,376.596 80.800,368.776 80.800 L 356.400 80.800 356.400 87.400 M181.376 306.518 C 181.267 306.802,181.228 309.727,181.289 313.018 L 181.400 319.000 200.000 319.000 L 218.600 319.000 218.710 312.500 L 218.820 306.000 200.197 306.000 C 185.331 306.000,181.535 306.104,181.376 306.518 M68.400 381.400 L 68.400 388.000 112.600 388.000 L 156.800 388.000 156.800 381.400 L 156.800 374.800 112.600 374.800 L 68.400 374.800 68.400 381.400 M243.600 381.400 L 243.600 388.000 287.600 388.000 L 331.600 388.000 331.600 381.400 L 331.600 374.800 287.600 374.800 L 243.600 374.800 243.600 381.400 " stroke="none" fill="#dcdbe3" fill-rule="evenodd"></path><path id="path1" d="M43.600 199.999 L 43.600 238.000 100.202 238.000 L 156.804 238.000 156.702 200.100 L 156.600 162.200 100.100 162.099 L 43.600 161.997 43.600 199.999 M168.400 200.000 L 168.400 238.000 175.000 238.000 L 181.600 238.000 181.600 200.000 L 181.600 162.000 175.000 162.000 L 168.400 162.000 168.400 200.000 M218.400 200.000 L 218.400 238.000 275.000 238.000 L 331.600 238.000 331.600 200.000 L 331.600 162.000 275.000 162.000 L 218.400 162.000 218.400 200.000 M343.600 199.990 L 343.600 238.000 350.202 238.000 L 356.804 238.000 356.702 200.100 L 356.600 162.200 350.100 162.090 L 343.600 161.980 343.600 199.990 M143.600 200.000 L 143.600 224.800 100.200 224.800 L 56.800 224.800 56.800 200.000 L 56.800 175.200 100.200 175.200 L 143.600 175.200 143.600 200.000 M318.400 200.000 L 318.400 224.800 275.000 224.800 L 231.600 224.800 231.600 200.000 L 231.600 175.200 275.000 175.200 L 318.400 175.200 318.400 200.000 " stroke="none" fill="#cf333c" fill-rule="evenodd"></path><path id="path2" d="M105.400 31.200 C 105.264 31.420,104.544 31.600,103.800 31.600 C 103.056 31.600,102.336 31.780,102.200 32.000 C 102.064 32.220,101.603 32.400,101.176 32.400 C 100.749 32.400,100.400 32.580,100.400 32.800 C 100.400 33.020,99.950 33.200,99.400 33.200 C 98.850 33.200,98.400 33.380,98.400 33.600 C 98.400 33.820,98.040 34.000,97.600 34.000 C 97.160 34.000,96.800 34.180,96.800 34.400 C 96.800 34.620,96.530 34.800,96.200 34.800 C 95.870 34.800,95.600 34.980,95.600 35.200 C 95.600 35.420,95.332 35.600,95.003 35.600 C 94.675 35.600,94.182 35.960,93.907 36.400 C 93.439 37.150,92.974 37.200,86.527 37.200 C 82.372 37.200,79.549 37.358,79.400 37.600 C 79.264 37.820,78.454 38.000,77.600 38.000 C 76.746 38.000,75.936 38.180,75.800 38.400 C 75.664 38.620,75.023 38.800,74.376 38.800 C 73.729 38.800,73.200 38.980,73.200 39.200 C 73.200 39.420,72.660 39.600,72.000 39.600 C 71.340 39.600,70.800 39.780,70.800 40.000 C 70.800 40.220,70.440 40.400,70.000 40.400 C 69.560 40.400,69.200 40.580,69.200 40.800 C 69.200 41.020,68.840 41.200,68.400 41.200 C 67.960 41.200,67.600 41.380,67.600 41.600 C 67.600 41.820,67.240 42.000,66.800 42.000 C 66.360 42.000,66.000 42.180,66.000 42.400 C 66.000 42.620,65.640 42.800,65.200 42.800 C 64.760 42.800,64.400 42.977,64.400 43.192 C 64.400 43.408,63.970 43.693,63.444 43.825 C 62.918 43.957,61.984 44.590,61.369 45.232 C 60.754 45.875,60.101 46.400,59.919 46.400 C 59.417 46.400,52.800 53.124,52.800 53.634 C 52.800 53.879,52.260 54.583,51.600 55.200 C 50.940 55.817,50.400 56.609,50.400 56.960 C 50.400 57.312,50.250 57.600,50.068 57.600 C 49.885 57.600,49.480 58.095,49.168 58.700 C 48.856 59.305,48.509 59.890,48.395 60.000 C 47.854 60.526,45.853 65.127,45.177 67.400 C 44.916 68.280,44.499 69.360,44.251 69.800 C 43.932 70.366,43.765 78.590,43.680 97.900 L 43.559 125.200 50.170 125.200 L 56.781 125.200 56.944 102.900 C 57.034 90.635,57.291 79.340,57.514 77.800 C 58.030 74.248,58.723 71.198,59.216 70.305 C 59.427 69.923,59.600 69.338,59.600 69.005 C 59.600 68.672,59.780 68.400,60.000 68.400 C 60.220 68.400,60.400 68.080,60.400 67.688 C 60.400 67.297,60.760 66.717,61.200 66.400 C 61.640 66.083,62.000 65.575,62.000 65.272 C 62.000 64.969,62.498 64.244,63.107 63.660 C 63.716 63.077,64.534 62.099,64.925 61.487 C 65.831 60.068,71.480 55.589,73.928 54.348 C 74.958 53.827,75.860 53.265,75.933 53.100 C 76.007 52.935,76.592 52.800,77.233 52.800 C 77.875 52.800,78.400 52.620,78.400 52.400 C 78.400 52.180,78.852 52.000,79.405 52.000 C 79.958 52.000,80.760 51.782,81.187 51.515 C 82.090 50.951,82.770 51.390,82.073 52.087 C 81.813 52.347,81.600 53.143,81.600 53.856 C 81.600 54.569,81.420 55.264,81.200 55.400 C 80.958 55.549,80.800 58.396,80.800 62.600 C 80.800 66.804,80.958 69.651,81.200 69.800 C 81.420 69.936,81.600 70.489,81.600 71.029 C 81.600 71.569,81.759 72.323,81.953 72.705 C 82.148 73.087,82.485 73.850,82.703 74.400 C 83.609 76.689,84.948 79.200,85.263 79.200 C 85.448 79.200,85.600 79.520,85.600 79.912 C 85.600 80.303,85.960 80.883,86.400 81.200 C 86.840 81.517,87.200 81.991,87.200 82.253 C 87.200 82.823,91.827 87.600,92.379 87.600 C 92.591 87.600,93.187 88.005,93.704 88.500 C 95.303 90.030,98.229 91.594,99.500 91.598 C 99.995 91.599,100.400 91.780,100.400 92.000 C 100.400 92.220,100.760 92.400,101.200 92.400 C 101.640 92.400,102.000 92.580,102.000 92.800 C 102.000 93.020,102.720 93.200,103.600 93.200 C 104.480 93.200,105.200 93.380,105.200 93.600 C 105.200 93.852,107.933 94.000,112.600 94.000 C 117.267 94.000,120.000 93.852,120.000 93.600 C 120.000 93.380,120.630 93.200,121.400 93.200 C 122.170 93.200,122.800 93.020,122.800 92.800 C 122.800 92.580,123.250 92.400,123.800 92.400 C 124.350 92.400,124.800 92.220,124.800 92.000 C 124.800 91.780,125.154 91.600,125.586 91.600 C 126.553 91.600,129.200 90.374,129.200 89.926 C 129.200 89.747,129.494 89.600,129.853 89.600 C 130.212 89.600,130.797 89.276,131.153 88.881 C 131.509 88.486,132.430 87.725,133.200 87.190 C 134.968 85.962,135.962 84.968,137.190 83.200 C 137.725 82.430,138.486 81.509,138.881 81.153 C 139.276 80.797,139.600 80.212,139.600 79.853 C 139.600 79.494,139.747 79.200,139.926 79.200 C 140.374 79.200,141.600 76.553,141.600 75.586 C 141.600 75.154,141.780 74.800,142.000 74.800 C 142.220 74.800,142.400 74.350,142.400 73.800 C 142.400 73.250,142.580 72.800,142.800 72.800 C 143.020 72.800,143.200 72.170,143.200 71.400 C 143.200 70.630,143.380 70.000,143.600 70.000 C 143.852 70.000,144.000 67.267,144.000 62.600 C 144.000 57.933,143.852 55.200,143.600 55.200 C 143.380 55.200,143.200 54.495,143.200 53.633 C 143.200 52.742,142.984 51.990,142.700 51.888 C 142.425 51.790,142.343 51.557,142.518 51.370 C 142.693 51.183,143.186 51.248,143.613 51.515 C 144.040 51.782,144.831 52.000,145.371 52.000 C 145.911 52.000,146.464 52.180,146.600 52.400 C 146.736 52.620,147.287 52.800,147.824 52.800 C 148.361 52.800,148.800 52.980,148.800 53.200 C 148.800 53.420,149.160 53.600,149.600 53.600 C 150.040 53.600,150.400 53.780,150.400 54.000 C 150.400 54.220,150.760 54.400,151.200 54.400 C 151.640 54.400,152.000 54.550,152.000 54.732 C 152.000 54.915,152.495 55.320,153.100 55.632 C 153.705 55.945,154.650 56.609,155.200 57.108 C 155.750 57.607,156.695 58.236,157.300 58.506 C 157.905 58.775,158.400 59.227,158.400 59.510 C 158.400 59.793,158.647 60.120,158.949 60.236 C 159.251 60.352,160.099 61.291,160.835 62.323 C 161.570 63.355,162.391 64.426,162.660 64.702 C 162.928 64.979,163.262 65.564,163.401 66.002 C 163.540 66.441,163.822 66.800,164.027 66.800 C 164.232 66.800,164.400 67.160,164.400 67.600 C 164.400 68.040,164.580 68.400,164.800 68.400 C 165.020 68.400,165.200 68.760,165.200 69.200 C 165.200 69.640,165.380 70.000,165.600 70.000 C 165.820 70.000,166.000 70.439,166.000 70.976 C 166.000 71.513,166.180 72.064,166.400 72.200 C 166.620 72.336,166.800 72.966,166.800 73.600 C 166.800 74.234,166.980 74.864,167.200 75.000 C 167.420 75.136,167.600 76.576,167.600 78.200 C 167.600 79.824,167.780 81.264,168.000 81.400 C 168.259 81.560,168.400 89.337,168.400 103.424 L 168.400 125.200 175.016 125.200 L 181.632 125.200 181.516 99.200 C 181.452 84.900,181.265 73.200,181.100 73.200 C 180.935 73.200,180.800 72.401,180.800 71.424 C 180.800 70.447,180.620 69.536,180.400 69.400 C 180.180 69.264,180.000 68.623,180.000 67.976 C 180.000 67.329,179.820 66.800,179.600 66.800 C 179.380 66.800,179.200 66.361,179.200 65.824 C 179.200 65.287,179.020 64.736,178.800 64.600 C 178.580 64.464,178.400 64.003,178.400 63.576 C 178.400 63.149,178.220 62.800,178.000 62.800 C 177.780 62.800,177.600 62.440,177.600 62.000 C 177.600 61.560,177.420 61.200,177.200 61.200 C 176.980 61.200,176.800 60.930,176.800 60.600 C 176.800 60.270,176.620 60.000,176.400 60.000 C 176.180 60.000,176.000 59.640,176.000 59.200 C 176.000 58.760,175.838 58.400,175.639 58.400 C 175.441 58.400,175.102 57.894,174.886 57.276 C 174.671 56.657,174.242 55.892,173.934 55.576 C 173.626 55.259,172.937 54.370,172.403 53.600 C 171.295 52.002,165.615 46.400,165.103 46.400 C 164.916 46.400,164.295 45.931,163.722 45.358 C 163.149 44.785,162.167 44.138,161.540 43.919 C 160.913 43.701,160.400 43.359,160.400 43.161 C 160.400 42.962,160.040 42.800,159.600 42.800 C 159.160 42.800,158.800 42.654,158.800 42.475 C 158.800 42.296,158.170 41.902,157.400 41.600 C 156.630 41.298,156.000 40.904,156.000 40.725 C 156.000 40.546,155.550 40.400,155.000 40.400 C 154.450 40.400,154.000 40.220,154.000 40.000 C 154.000 39.780,153.550 39.600,153.000 39.600 C 152.450 39.600,152.000 39.420,152.000 39.200 C 152.000 38.980,151.471 38.800,150.824 38.800 C 150.177 38.800,149.536 38.620,149.400 38.400 C 149.264 38.180,148.353 38.000,147.376 38.000 C 146.399 38.000,145.600 37.820,145.600 37.600 C 145.600 37.349,143.029 37.200,138.688 37.200 C 132.235 37.200,131.738 37.147,131.200 36.400 C 130.883 35.960,130.303 35.600,129.912 35.600 C 129.520 35.600,129.200 35.448,129.200 35.263 C 129.200 34.948,126.689 33.609,124.400 32.703 C 123.850 32.485,123.087 32.148,122.705 31.953 C 122.323 31.759,121.569 31.600,121.029 31.600 C 120.489 31.600,119.936 31.420,119.800 31.200 C 119.651 30.958,116.804 30.800,112.600 30.800 C 108.396 30.800,105.549 30.958,105.400 31.200 M280.200 31.200 C 280.064 31.420,279.434 31.600,278.800 31.600 C 278.166 31.600,277.536 31.780,277.400 32.000 C 277.264 32.220,276.803 32.400,276.376 32.400 C 275.949 32.400,275.600 32.580,275.600 32.800 C 275.600 33.020,275.257 33.200,274.838 33.200 C 273.931 33.200,270.800 34.808,270.800 35.274 C 270.800 35.453,270.480 35.600,270.088 35.600 C 269.697 35.600,269.117 35.960,268.800 36.400 C 268.262 37.147,267.765 37.200,261.312 37.200 C 256.971 37.200,254.400 37.349,254.400 37.600 C 254.400 37.820,253.590 38.000,252.600 38.000 C 251.610 38.000,250.800 38.180,250.800 38.400 C 250.800 38.620,250.170 38.800,249.400 38.800 C 248.630 38.800,248.000 38.980,248.000 39.200 C 248.000 39.420,247.550 39.600,247.000 39.600 C 246.450 39.600,246.000 39.780,246.000 40.000 C 246.000 40.220,245.766 40.400,245.480 40.400 C 244.744 40.400,242.807 41.341,242.803 41.700 C 242.801 41.865,242.440 42.000,242.000 42.000 C 241.560 42.000,241.200 42.180,241.200 42.400 C 241.200 42.620,240.840 42.800,240.400 42.800 C 239.960 42.800,239.600 42.962,239.600 43.161 C 239.600 43.359,239.087 43.701,238.460 43.919 C 237.833 44.138,236.851 44.785,236.278 45.358 C 235.705 45.931,235.077 46.400,234.883 46.400 C 234.272 46.400,228.419 52.403,227.735 53.731 C 227.376 54.429,226.748 55.291,226.341 55.647 C 225.933 56.003,225.600 56.548,225.600 56.859 C 225.600 57.169,225.240 57.683,224.800 58.000 C 224.360 58.317,224.000 58.897,224.000 59.288 C 224.000 59.680,223.854 60.000,223.675 60.000 C 223.496 60.000,223.102 60.630,222.800 61.400 C 222.498 62.170,222.104 62.800,221.925 62.800 C 221.746 62.800,221.600 63.250,221.600 63.800 C 221.600 64.350,221.420 64.800,221.200 64.800 C 220.980 64.800,220.800 65.250,220.800 65.800 C 220.800 66.350,220.620 66.800,220.400 66.800 C 220.180 66.800,220.000 67.329,220.000 67.976 C 220.000 68.623,219.820 69.264,219.600 69.400 C 219.380 69.536,219.200 70.447,219.200 71.424 C 219.200 72.401,219.065 73.200,218.900 73.200 C 218.735 73.200,218.548 84.900,218.485 99.200 L 218.369 125.200 224.985 125.200 L 231.600 125.200 231.600 103.424 C 231.600 89.337,231.741 81.560,232.000 81.400 C 232.220 81.264,232.400 79.824,232.400 78.200 C 232.400 76.576,232.580 75.136,232.800 75.000 C 233.020 74.864,233.200 74.234,233.200 73.600 C 233.200 72.966,233.380 72.336,233.600 72.200 C 233.820 72.064,234.000 71.513,234.000 70.976 C 234.000 70.439,234.180 70.000,234.400 70.000 C 234.620 70.000,234.800 69.640,234.800 69.200 C 234.800 68.760,234.980 68.400,235.200 68.400 C 235.420 68.400,235.600 68.040,235.600 67.600 C 235.600 67.160,235.750 66.800,235.932 66.800 C 236.115 66.800,236.520 66.311,236.832 65.712 C 238.233 63.028,244.674 56.587,247.031 55.513 C 247.564 55.270,248.000 54.920,248.000 54.736 C 248.000 54.551,248.360 54.400,248.800 54.400 C 249.240 54.400,249.600 54.220,249.600 54.000 C 249.600 53.780,249.960 53.600,250.400 53.600 C 250.840 53.600,251.200 53.420,251.200 53.200 C 251.200 52.980,251.639 52.800,252.176 52.800 C 252.713 52.800,253.264 52.620,253.400 52.400 C 253.536 52.180,254.089 52.000,254.629 52.000 C 255.169 52.000,255.960 51.782,256.387 51.515 C 257.290 50.951,257.970 51.390,257.273 52.087 C 257.013 52.347,256.800 53.154,256.800 53.880 C 256.800 54.606,256.620 55.200,256.400 55.200 C 256.148 55.200,256.000 57.933,256.000 62.600 C 256.000 67.267,256.148 70.000,256.400 70.000 C 256.620 70.000,256.800 70.630,256.800 71.400 C 256.800 72.170,256.980 72.800,257.200 72.800 C 257.420 72.800,257.600 73.250,257.600 73.800 C 257.600 74.350,257.780 74.800,258.000 74.800 C 258.220 74.800,258.400 75.250,258.400 75.800 C 258.400 76.350,258.580 76.800,258.800 76.800 C 259.020 76.800,259.200 77.160,259.200 77.600 C 259.200 78.040,259.362 78.400,259.561 78.400 C 259.759 78.400,260.098 78.906,260.314 79.524 C 260.529 80.143,260.952 80.908,261.253 81.224 C 261.554 81.541,262.419 82.621,263.176 83.624 C 263.933 84.627,265.373 86.067,266.376 86.824 C 267.379 87.581,268.549 88.515,268.975 88.900 C 269.402 89.285,269.987 89.600,270.275 89.600 C 270.564 89.600,270.800 89.747,270.800 89.926 C 270.800 90.418,273.492 91.600,274.614 91.600 C 275.156 91.600,275.600 91.780,275.600 92.000 C 275.600 92.220,275.960 92.400,276.400 92.400 C 276.840 92.400,277.200 92.580,277.200 92.800 C 277.200 93.020,277.819 93.200,278.576 93.200 C 279.333 93.200,280.064 93.380,280.200 93.600 C 280.350 93.843,283.271 94.000,287.624 94.000 C 292.141 94.000,294.800 93.852,294.800 93.600 C 294.800 93.380,295.520 93.200,296.400 93.200 C 297.280 93.200,298.000 93.020,298.000 92.800 C 298.000 92.580,298.360 92.400,298.800 92.400 C 299.240 92.400,299.600 92.220,299.600 92.000 C 299.600 91.780,300.005 91.599,300.500 91.598 C 301.663 91.594,304.368 90.181,307.004 88.200 C 309.100 86.625,312.800 82.817,312.800 82.235 C 312.800 81.983,313.160 81.517,313.600 81.200 C 314.040 80.883,314.400 80.303,314.400 79.912 C 314.400 79.520,314.547 79.200,314.726 79.200 C 315.135 79.200,316.800 76.119,316.800 75.362 C 316.800 75.053,316.980 74.800,317.200 74.800 C 317.420 74.800,317.600 74.361,317.600 73.824 C 317.600 73.287,317.780 72.736,318.000 72.600 C 318.220 72.464,318.400 71.834,318.400 71.200 C 318.400 70.566,318.580 69.936,318.800 69.800 C 319.043 69.650,319.200 66.729,319.200 62.376 C 319.200 57.859,319.052 55.200,318.800 55.200 C 318.580 55.200,318.400 54.581,318.400 53.824 C 318.400 53.067,318.220 52.336,318.000 52.200 C 317.395 51.826,317.521 51.200,318.200 51.200 C 318.530 51.200,318.800 51.380,318.800 51.600 C 318.800 51.820,319.430 52.000,320.200 52.000 C 320.970 52.000,321.600 52.180,321.600 52.400 C 321.600 52.620,322.039 52.800,322.576 52.800 C 323.113 52.800,323.664 52.980,323.800 53.200 C 323.936 53.420,324.397 53.600,324.824 53.600 C 325.251 53.600,325.600 53.780,325.600 54.000 C 325.600 54.220,325.868 54.400,326.195 54.400 C 326.523 54.400,327.108 54.662,327.495 54.983 C 327.883 55.304,329.579 56.645,331.265 57.963 C 332.950 59.282,334.838 61.045,335.460 61.881 C 336.082 62.716,336.864 63.670,337.198 64.000 C 337.532 64.330,338.060 65.095,338.370 65.700 C 338.681 66.305,339.085 66.800,339.268 66.800 C 339.450 66.800,339.600 67.160,339.600 67.600 C 339.600 68.040,339.780 68.400,340.000 68.400 C 340.220 68.400,340.400 68.760,340.400 69.200 C 340.400 69.640,340.580 70.000,340.800 70.000 C 341.020 70.000,341.200 70.540,341.200 71.200 C 341.200 71.860,341.380 72.400,341.600 72.400 C 341.820 72.400,342.000 73.030,342.000 73.800 C 342.000 74.570,342.180 75.200,342.400 75.200 C 342.631 75.200,342.800 76.459,342.800 78.176 C 342.800 79.813,342.980 81.264,343.200 81.400 C 343.459 81.560,343.600 89.337,343.600 103.424 L 343.600 125.200 350.220 125.200 L 356.840 125.200 356.697 99.410 C 356.618 85.226,356.429 73.496,356.277 73.344 C 356.125 73.191,356.000 72.387,356.000 71.557 C 356.000 70.727,355.820 69.936,355.600 69.800 C 355.380 69.664,355.200 69.034,355.200 68.400 C 355.200 67.766,355.020 67.136,354.800 67.000 C 354.580 66.864,354.400 66.482,354.400 66.151 C 354.400 65.407,351.959 60.250,351.520 60.067 C 351.344 59.993,351.200 59.628,351.200 59.255 C 351.200 58.882,350.840 58.317,350.400 58.000 C 349.960 57.683,349.600 57.191,349.600 56.908 C 349.600 56.625,349.060 55.828,348.400 55.137 C 347.740 54.446,347.200 53.720,347.200 53.524 C 347.200 52.647,338.578 44.828,336.636 43.944 C 336.066 43.684,335.600 43.320,335.600 43.136 C 335.600 42.951,335.240 42.800,334.800 42.800 C 334.360 42.800,334.000 42.620,334.000 42.400 C 334.000 42.180,333.640 42.000,333.200 42.000 C 332.760 42.000,332.400 41.820,332.400 41.600 C 332.400 41.380,332.040 41.200,331.600 41.200 C 331.160 41.200,330.800 41.020,330.800 40.800 C 330.800 40.580,330.451 40.400,330.024 40.400 C 329.597 40.400,329.136 40.220,329.000 40.000 C 328.864 39.780,328.313 39.600,327.776 39.600 C 327.239 39.600,326.800 39.420,326.800 39.200 C 326.800 38.980,326.271 38.800,325.624 38.800 C 324.977 38.800,324.336 38.620,324.200 38.400 C 324.064 38.180,323.243 38.000,322.376 38.000 C 321.509 38.000,320.800 37.820,320.800 37.600 C 320.800 37.349,318.261 37.200,313.983 37.200 C 307.719 37.200,307.097 37.135,306.308 36.400 C 305.836 35.960,305.213 35.600,304.925 35.600 C 304.636 35.600,304.400 35.453,304.400 35.274 C 304.400 34.808,301.269 33.200,300.362 33.200 C 299.943 33.200,299.600 33.020,299.600 32.800 C 299.600 32.580,299.251 32.400,298.824 32.400 C 298.397 32.400,297.936 32.220,297.800 32.000 C 297.664 31.780,296.933 31.600,296.176 31.600 C 295.419 31.600,294.800 31.420,294.800 31.200 C 294.800 30.948,292.141 30.800,287.624 30.800 C 283.271 30.800,280.350 30.957,280.200 31.200 M117.600 45.200 C 117.600 45.420,117.960 45.600,118.400 45.600 C 118.840 45.600,119.200 45.780,119.200 46.000 C 119.200 46.220,119.560 46.400,120.000 46.400 C 120.440 46.400,120.800 46.580,120.800 46.800 C 120.800 47.020,121.078 47.200,121.418 47.200 C 121.758 47.200,122.472 47.636,123.005 48.169 C 123.538 48.702,124.340 49.254,124.787 49.396 C 125.234 49.538,125.600 49.878,125.600 50.152 C 125.600 50.425,125.949 51.023,126.375 51.481 C 126.801 51.938,127.634 53.277,128.227 54.456 C 128.820 55.635,129.475 56.935,129.683 57.344 C 130.220 58.399,130.174 67.342,129.631 67.523 C 129.394 67.602,129.200 67.928,129.200 68.247 C 129.200 71.732,121.732 79.200,118.247 79.200 C 117.928 79.200,117.602 79.394,117.523 79.631 C 117.342 80.174,108.399 80.220,107.344 79.683 C 106.935 79.475,105.635 78.820,104.456 78.227 C 103.277 77.634,101.938 76.801,101.481 76.375 C 101.023 75.949,100.413 75.600,100.125 75.600 C 99.836 75.600,99.600 75.357,99.600 75.059 C 99.600 74.762,99.060 73.954,98.400 73.263 C 97.740 72.572,97.200 71.736,97.200 71.404 C 97.200 71.072,97.020 70.800,96.800 70.800 C 96.580 70.800,96.400 70.440,96.400 70.000 C 96.400 69.560,96.220 69.200,96.000 69.200 C 95.780 69.200,95.600 68.840,95.600 68.400 C 95.600 67.960,95.420 67.600,95.200 67.600 C 94.955 67.600,94.800 65.667,94.800 62.600 C 94.800 59.533,94.955 57.600,95.200 57.600 C 95.420 57.600,95.600 57.347,95.600 57.038 C 95.600 56.380,97.180 53.232,97.886 52.485 C 98.153 52.202,98.673 51.462,99.040 50.840 C 99.408 50.217,100.217 49.408,100.840 49.040 C 101.462 48.673,102.202 48.153,102.485 47.886 C 103.232 47.180,106.380 45.600,107.038 45.600 C 107.347 45.600,107.600 45.420,107.600 45.200 C 107.600 44.955,109.533 44.800,112.600 44.800 C 115.667 44.800,117.600 44.955,117.600 45.200 M292.800 45.200 C 292.800 45.420,293.160 45.600,293.600 45.600 C 294.040 45.600,294.400 45.780,294.400 46.000 C 294.400 46.220,294.760 46.400,295.200 46.400 C 295.640 46.400,296.000 46.580,296.000 46.800 C 296.000 47.020,296.270 47.200,296.600 47.200 C 296.930 47.200,297.200 47.338,297.200 47.506 C 297.200 47.674,297.898 48.243,298.752 48.770 C 299.606 49.298,300.602 50.234,300.966 50.850 C 301.330 51.467,301.847 52.202,302.114 52.485 C 302.820 53.232,304.400 56.380,304.400 57.038 C 304.400 57.347,304.580 57.600,304.800 57.600 C 305.045 57.600,305.200 59.533,305.200 62.600 C 305.200 65.667,305.045 67.600,304.800 67.600 C 304.580 67.600,304.400 67.960,304.400 68.400 C 304.400 68.840,304.220 69.200,304.000 69.200 C 303.780 69.200,303.600 69.560,303.600 70.000 C 303.600 70.440,303.420 70.800,303.200 70.800 C 302.980 70.800,302.800 71.078,302.800 71.418 C 302.800 71.758,302.364 72.472,301.831 73.005 C 301.298 73.538,300.746 74.340,300.604 74.787 C 300.462 75.234,300.088 75.600,299.773 75.600 C 299.458 75.600,299.200 75.780,299.200 76.000 C 299.200 76.220,298.945 76.400,298.633 76.400 C 298.322 76.400,298.007 76.553,297.933 76.739 C 297.749 77.209,294.096 79.200,293.419 79.200 C 293.115 79.200,292.803 79.392,292.725 79.626 C 292.528 80.215,282.674 80.222,282.478 79.633 C 282.398 79.395,282.072 79.200,281.753 79.200 C 280.885 79.200,277.093 77.195,276.353 76.344 C 275.997 75.935,275.547 75.599,275.353 75.597 C 275.159 75.596,274.552 74.921,274.004 74.097 C 273.456 73.274,272.916 72.510,272.804 72.400 C 272.359 71.963,270.800 68.692,270.800 68.196 C 270.800 67.905,270.611 67.604,270.380 67.527 C 269.846 67.349,269.800 58.361,270.328 57.336 C 270.536 56.931,270.943 56.060,271.232 55.400 C 271.879 53.924,274.750 49.918,275.476 49.478 C 275.768 49.301,276.448 48.716,276.986 48.178 C 277.524 47.640,278.242 47.200,278.582 47.200 C 278.922 47.200,279.200 47.020,279.200 46.800 C 279.200 46.580,279.560 46.400,280.000 46.400 C 280.440 46.400,280.800 46.220,280.800 46.000 C 280.800 45.780,281.160 45.600,281.600 45.600 C 282.040 45.600,282.400 45.420,282.400 45.200 C 282.400 44.954,284.400 44.800,287.600 44.800 C 290.800 44.800,292.800 44.954,292.800 45.200 M68.400 109.400 L 68.400 125.200 75.000 125.200 L 81.600 125.200 81.600 109.400 L 81.600 93.600 75.000 93.600 L 68.400 93.600 68.400 109.400 M143.600 109.400 L 143.600 125.200 150.200 125.200 L 156.800 125.200 156.800 109.400 L 156.800 93.600 150.200 93.600 L 143.600 93.600 143.600 109.400 M243.600 109.400 L 243.600 125.200 250.200 125.200 L 256.800 125.200 256.800 109.400 L 256.800 93.600 250.200 93.600 L 243.600 93.600 243.600 109.400 M318.400 109.400 L 318.400 125.200 325.000 125.200 L 331.600 125.200 331.600 109.400 L 331.600 93.600 325.000 93.600 L 318.400 93.600 318.400 109.400 M43.680 302.100 C 43.765 321.410,43.932 329.634,44.251 330.200 C 44.499 330.640,44.916 331.720,45.177 332.600 C 46.108 335.730,48.689 341.133,49.691 342.047 C 50.081 342.403,50.400 342.916,50.400 343.186 C 50.400 343.457,50.940 344.183,51.600 344.800 C 52.260 345.417,52.800 346.127,52.800 346.380 C 52.800 346.860,57.492 351.571,59.460 353.066 C 60.087 353.543,61.122 354.382,61.761 354.931 C 62.399 355.480,63.389 356.171,63.961 356.465 C 64.532 356.759,65.610 357.405,66.356 357.900 C 67.102 358.395,68.047 358.800,68.456 358.800 C 68.865 358.800,69.200 358.980,69.200 359.200 C 69.200 359.420,69.740 359.600,70.400 359.600 C 71.060 359.600,71.600 359.780,71.600 360.000 C 71.600 360.220,71.960 360.400,72.400 360.400 C 72.840 360.400,73.200 360.580,73.200 360.800 C 73.200 361.020,73.920 361.200,74.800 361.200 C 75.680 361.200,76.400 361.380,76.400 361.600 C 76.400 361.820,77.019 362.000,77.776 362.000 C 78.533 362.000,79.264 362.180,79.400 362.400 C 79.549 362.642,82.372 362.800,86.527 362.800 C 92.974 362.800,93.439 362.850,93.907 363.600 C 94.182 364.040,94.675 364.400,95.003 364.400 C 95.332 364.400,95.600 364.580,95.600 364.800 C 95.600 365.020,95.870 365.200,96.200 365.200 C 96.530 365.200,96.800 365.380,96.800 365.600 C 96.800 365.820,97.160 366.000,97.600 366.000 C 98.040 366.000,98.400 366.180,98.400 366.400 C 98.400 366.620,98.850 366.800,99.400 366.800 C 99.950 366.800,100.400 366.980,100.400 367.200 C 100.400 367.420,100.749 367.600,101.176 367.600 C 101.603 367.600,102.064 367.780,102.200 368.000 C 102.336 368.220,103.067 368.400,103.824 368.400 C 104.581 368.400,105.200 368.580,105.200 368.800 C 105.200 369.052,107.859 369.200,112.376 369.200 C 116.729 369.200,119.650 369.043,119.800 368.800 C 119.936 368.580,120.566 368.400,121.200 368.400 C 121.834 368.400,122.464 368.220,122.600 368.000 C 122.736 367.780,123.287 367.600,123.824 367.600 C 124.361 367.600,124.800 367.420,124.800 367.200 C 124.800 366.980,125.053 366.800,125.362 366.800 C 126.119 366.800,129.200 365.135,129.200 364.726 C 129.200 364.547,129.520 364.400,129.912 364.400 C 130.303 364.400,130.883 364.040,131.200 363.600 C 131.738 362.853,132.235 362.800,138.688 362.800 C 143.029 362.800,145.600 362.651,145.600 362.400 C 145.600 362.180,146.399 362.000,147.376 362.000 C 148.353 362.000,149.264 361.820,149.400 361.600 C 149.536 361.380,150.177 361.200,150.824 361.200 C 151.471 361.200,152.000 361.020,152.000 360.800 C 152.000 360.580,152.439 360.400,152.976 360.400 C 153.513 360.400,154.064 360.220,154.200 360.000 C 154.336 359.780,154.797 359.600,155.224 359.600 C 155.651 359.600,156.000 359.440,156.000 359.245 C 156.000 359.049,156.630 358.771,157.400 358.626 C 158.170 358.482,158.800 358.192,158.800 357.982 C 158.800 357.772,159.036 357.600,159.325 357.600 C 159.613 357.600,160.236 357.240,160.708 356.800 C 161.180 356.360,161.778 356.000,162.036 356.000 C 162.295 356.000,162.797 355.676,163.153 355.281 C 163.509 354.886,164.430 354.126,165.200 353.593 C 166.887 352.425,172.400 346.872,172.400 346.341 C 172.400 346.133,172.869 345.495,173.442 344.922 C 174.015 344.349,174.662 343.367,174.881 342.740 C 175.099 342.113,175.441 341.600,175.639 341.600 C 175.838 341.600,176.000 341.330,176.000 341.000 C 176.000 340.670,176.180 340.400,176.400 340.400 C 176.620 340.400,176.800 340.040,176.800 339.600 C 176.800 339.160,176.980 338.800,177.200 338.800 C 177.420 338.800,177.600 338.440,177.600 338.000 C 177.600 337.560,177.780 337.200,178.000 337.200 C 178.220 337.200,178.400 336.750,178.400 336.200 C 178.400 335.650,178.580 335.200,178.800 335.200 C 179.020 335.200,179.200 334.750,179.200 334.200 C 179.200 333.650,179.380 333.200,179.600 333.200 C 179.820 333.200,180.000 332.581,180.000 331.824 C 180.000 331.067,180.180 330.336,180.400 330.200 C 180.620 330.064,180.800 329.243,180.800 328.376 C 180.800 327.509,180.935 326.800,181.100 326.800 C 181.265 326.800,181.452 315.100,181.516 300.800 L 181.632 274.800 175.016 274.800 L 168.400 274.800 168.400 296.576 C 168.400 310.663,168.259 318.440,168.000 318.600 C 167.780 318.736,167.600 320.176,167.600 321.800 C 167.600 323.424,167.420 324.864,167.200 325.000 C 166.980 325.136,166.800 325.766,166.800 326.400 C 166.800 327.034,166.620 327.664,166.400 327.800 C 166.180 327.936,166.000 328.487,166.000 329.024 C 166.000 329.561,165.820 330.000,165.600 330.000 C 165.380 330.000,165.200 330.360,165.200 330.800 C 165.200 331.240,165.020 331.600,164.800 331.600 C 164.580 331.600,164.400 331.960,164.400 332.400 C 164.400 332.840,164.250 333.200,164.068 333.200 C 163.885 333.200,163.480 333.695,163.168 334.300 C 162.856 334.905,162.511 335.490,162.401 335.600 C 161.583 336.415,159.200 339.602,159.200 339.881 C 159.200 340.072,158.705 340.526,158.100 340.891 C 157.495 341.256,156.534 341.995,155.965 342.534 C 155.395 343.072,154.315 343.827,153.565 344.212 C 152.814 344.597,152.110 345.022,152.000 345.156 C 151.613 345.628,150.004 346.400,149.405 346.400 C 149.072 346.400,148.800 346.580,148.800 346.800 C 148.800 347.020,148.361 347.200,147.824 347.200 C 147.287 347.200,146.736 347.380,146.600 347.600 C 146.464 347.820,145.911 348.000,145.371 348.000 C 144.831 348.000,144.040 348.218,143.613 348.485 C 143.186 348.752,142.693 348.817,142.518 348.630 C 142.343 348.443,142.425 348.210,142.700 348.112 C 142.984 348.010,143.200 347.258,143.200 346.367 C 143.200 345.505,143.380 344.800,143.600 344.800 C 143.852 344.800,144.000 342.141,144.000 337.624 C 144.000 333.271,143.843 330.350,143.600 330.200 C 143.380 330.064,143.200 329.333,143.200 328.576 C 143.200 327.819,143.020 327.200,142.800 327.200 C 142.580 327.200,142.400 326.851,142.400 326.424 C 142.400 325.997,142.220 325.536,142.000 325.400 C 141.780 325.264,141.600 324.810,141.600 324.390 C 141.600 323.442,140.368 320.800,139.926 320.800 C 139.747 320.800,139.600 320.564,139.600 320.275 C 139.600 319.987,139.285 319.402,138.900 318.975 C 138.515 318.549,137.581 317.379,136.824 316.376 C 136.067 315.373,134.627 313.933,133.624 313.176 C 132.621 312.419,131.541 311.554,131.224 311.253 C 130.908 310.952,130.143 310.529,129.524 310.314 C 128.906 310.098,128.400 309.759,128.400 309.561 C 128.400 309.362,128.040 309.200,127.600 309.200 C 127.160 309.200,126.800 309.020,126.800 308.800 C 126.800 308.580,126.350 308.400,125.800 308.400 C 125.250 308.400,124.800 308.220,124.800 308.000 C 124.800 307.780,124.350 307.600,123.800 307.600 C 123.250 307.600,122.800 307.420,122.800 307.200 C 122.800 306.980,122.170 306.800,121.400 306.800 C 120.630 306.800,120.000 306.620,120.000 306.400 C 120.000 306.148,117.267 306.000,112.600 306.000 C 107.933 306.000,105.200 306.148,105.200 306.400 C 105.200 306.620,104.480 306.800,103.600 306.800 C 102.720 306.800,102.000 306.980,102.000 307.200 C 102.000 307.420,101.640 307.600,101.200 307.600 C 100.760 307.600,100.400 307.780,100.400 308.000 C 100.400 308.220,100.049 308.400,99.620 308.400 C 98.822 308.400,95.315 310.189,94.084 311.225 C 93.708 311.541,92.883 312.133,92.252 312.540 C 90.814 313.468,87.200 317.230,87.200 317.799 C 87.200 318.032,86.840 318.483,86.400 318.800 C 85.960 319.117,85.600 319.697,85.600 320.088 C 85.600 320.480,85.453 320.800,85.274 320.800 C 84.808 320.800,83.200 323.931,83.200 324.838 C 83.200 325.257,83.020 325.600,82.800 325.600 C 82.580 325.600,82.400 325.949,82.400 326.376 C 82.400 326.803,82.220 327.264,82.000 327.400 C 81.780 327.536,81.600 328.166,81.600 328.800 C 81.600 329.434,81.420 330.064,81.200 330.200 C 80.958 330.349,80.800 333.196,80.800 337.400 C 80.800 341.604,80.958 344.451,81.200 344.600 C 81.420 344.736,81.600 345.431,81.600 346.144 C 81.600 346.857,81.813 347.653,82.073 347.913 C 82.334 348.174,82.421 348.513,82.267 348.667 C 82.113 348.821,81.774 348.734,81.513 348.473 C 81.253 348.213,80.446 348.000,79.720 348.000 C 78.994 348.000,78.400 347.820,78.400 347.600 C 78.400 347.380,78.141 347.200,77.824 347.200 C 77.507 347.200,76.202 346.640,74.924 345.957 C 73.646 345.273,72.083 344.438,71.450 344.102 C 69.032 342.818,62.000 335.803,62.000 334.675 C 62.000 334.401,61.640 333.917,61.200 333.600 C 60.760 333.283,60.400 332.703,60.400 332.312 C 60.400 331.920,60.220 331.600,60.000 331.600 C 59.780 331.600,59.600 331.240,59.600 330.800 C 59.600 330.360,59.445 330.000,59.255 330.000 C 58.901 330.000,58.270 327.147,57.528 322.200 C 57.291 320.620,57.036 309.685,56.944 297.100 L 56.781 274.800 50.170 274.800 L 43.559 274.800 43.680 302.100 M68.400 290.800 L 68.400 306.800 75.000 306.800 L 81.600 306.800 81.600 290.800 L 81.600 274.800 75.000 274.800 L 68.400 274.800 68.400 290.800 M143.600 290.810 L 143.600 306.820 150.100 306.710 L 156.600 306.600 156.705 290.700 L 156.809 274.800 150.205 274.800 L 143.600 274.800 143.600 290.810 M218.485 300.800 C 218.548 315.100,218.735 326.800,218.900 326.800 C 219.065 326.800,219.200 327.599,219.200 328.576 C 219.200 329.553,219.380 330.464,219.600 330.600 C 219.820 330.736,220.000 331.377,220.000 332.024 C 220.000 332.671,220.180 333.200,220.400 333.200 C 220.620 333.200,220.800 333.639,220.800 334.176 C 220.800 334.713,220.980 335.264,221.200 335.400 C 221.420 335.536,221.600 335.997,221.600 336.424 C 221.600 336.851,221.780 337.200,222.000 337.200 C 222.220 337.200,222.400 337.560,222.400 338.000 C 222.400 338.440,222.580 338.800,222.800 338.800 C 223.020 338.800,223.200 339.160,223.200 339.600 C 223.200 340.040,223.380 340.400,223.600 340.400 C 223.820 340.400,224.000 340.630,224.000 340.912 C 224.000 341.193,224.360 341.683,224.800 342.000 C 225.240 342.317,225.600 342.831,225.600 343.141 C 225.600 343.452,225.933 343.997,226.341 344.353 C 226.748 344.709,227.368 345.540,227.717 346.200 C 228.562 347.795,229.681 348.986,232.800 351.611 C 234.230 352.815,235.490 353.902,235.600 354.026 C 236.091 354.582,239.587 356.800,239.972 356.800 C 240.207 356.800,240.400 356.947,240.400 357.126 C 240.400 357.524,243.001 358.800,243.814 358.800 C 244.136 358.800,244.400 358.980,244.400 359.200 C 244.400 359.420,244.850 359.600,245.400 359.600 C 245.950 359.600,246.400 359.780,246.400 360.000 C 246.400 360.220,246.749 360.400,247.176 360.400 C 247.603 360.400,248.064 360.580,248.200 360.800 C 248.336 361.020,249.067 361.200,249.824 361.200 C 250.581 361.200,251.200 361.380,251.200 361.600 C 251.200 361.820,251.920 362.000,252.800 362.000 C 253.680 362.000,254.400 362.180,254.400 362.400 C 254.400 362.651,256.971 362.800,261.312 362.800 C 267.765 362.800,268.262 362.853,268.800 363.600 C 269.117 364.040,269.697 364.400,270.088 364.400 C 270.480 364.400,270.800 364.547,270.800 364.726 C 270.800 365.192,273.931 366.800,274.838 366.800 C 275.257 366.800,275.600 366.980,275.600 367.200 C 275.600 367.420,275.949 367.600,276.376 367.600 C 276.803 367.600,277.264 367.780,277.400 368.000 C 277.536 368.220,278.166 368.400,278.800 368.400 C 279.434 368.400,280.064 368.580,280.200 368.800 C 280.350 369.043,283.271 369.200,287.624 369.200 C 292.141 369.200,294.800 369.052,294.800 368.800 C 294.800 368.580,295.419 368.400,296.176 368.400 C 296.933 368.400,297.664 368.220,297.800 368.000 C 297.936 367.780,298.397 367.600,298.824 367.600 C 299.251 367.600,299.600 367.420,299.600 367.200 C 299.600 366.980,299.924 366.800,300.320 366.800 C 301.214 366.800,303.193 365.906,303.197 365.500 C 303.199 365.335,303.470 365.200,303.800 365.200 C 304.130 365.200,304.400 365.020,304.400 364.800 C 304.400 364.580,304.720 364.400,305.112 364.400 C 305.503 364.400,306.083 364.040,306.400 363.600 C 306.938 362.853,307.435 362.800,313.888 362.800 C 318.229 362.800,320.800 362.651,320.800 362.400 C 320.800 362.180,321.509 362.000,322.376 362.000 C 323.243 362.000,324.064 361.820,324.200 361.600 C 324.336 361.380,324.977 361.200,325.624 361.200 C 326.271 361.200,326.800 361.020,326.800 360.800 C 326.800 360.580,327.340 360.400,328.000 360.400 C 328.660 360.400,329.200 360.220,329.200 360.000 C 329.200 359.780,329.560 359.600,330.000 359.600 C 330.440 359.600,330.800 359.420,330.800 359.200 C 330.800 358.980,331.097 358.800,331.460 358.800 C 332.299 358.800,336.400 356.738,336.400 356.316 C 336.400 356.142,336.643 356.000,336.941 356.000 C 337.238 356.000,338.046 355.460,338.737 354.800 C 339.428 354.140,340.087 353.600,340.202 353.600 C 340.621 353.600,347.200 346.799,347.200 346.366 C 347.200 346.121,347.740 345.417,348.400 344.800 C 349.060 344.183,349.600 343.457,349.600 343.186 C 349.600 342.916,349.919 342.403,350.309 342.047 C 350.943 341.469,353.038 337.459,354.096 334.800 C 354.314 334.250,354.652 333.487,354.847 333.105 C 355.041 332.723,355.200 331.969,355.200 331.429 C 355.200 330.889,355.380 330.336,355.600 330.200 C 355.820 330.064,356.000 329.273,356.000 328.443 C 356.000 327.613,356.125 326.809,356.277 326.656 C 356.429 326.504,356.618 314.774,356.697 300.590 L 356.840 274.800 350.220 274.800 L 343.600 274.800 343.600 296.576 C 343.600 310.663,343.459 318.440,343.200 318.600 C 342.980 318.736,342.800 320.187,342.800 321.824 C 342.800 323.541,342.631 324.800,342.400 324.800 C 342.180 324.800,342.000 325.419,342.000 326.176 C 342.000 326.933,341.820 327.664,341.600 327.800 C 341.380 327.936,341.200 328.487,341.200 329.024 C 341.200 329.561,341.020 330.000,340.800 330.000 C 340.580 330.000,340.400 330.360,340.400 330.800 C 340.400 331.240,340.220 331.600,340.000 331.600 C 339.780 331.600,339.600 331.920,339.600 332.312 C 339.600 332.703,339.240 333.283,338.800 333.600 C 338.360 333.917,338.000 334.431,338.000 334.741 C 338.000 335.052,337.680 335.597,337.289 335.953 C 336.897 336.309,335.954 337.410,335.191 338.400 C 334.429 339.390,333.398 340.529,332.900 340.931 C 332.403 341.333,331.740 341.918,331.426 342.231 C 331.113 342.544,330.664 342.800,330.429 342.800 C 330.193 342.800,330.000 342.939,330.000 343.109 C 330.000 343.279,329.370 343.757,328.600 344.172 C 327.830 344.587,327.200 345.078,327.200 345.263 C 327.200 345.448,326.840 345.600,326.400 345.600 C 325.960 345.600,325.600 345.780,325.600 346.000 C 325.600 346.220,325.240 346.400,324.800 346.400 C 324.360 346.400,324.000 346.580,324.000 346.800 C 324.000 347.020,323.460 347.200,322.800 347.200 C 322.140 347.200,321.600 347.380,321.600 347.600 C 321.600 347.820,321.148 348.000,320.595 348.000 C 320.042 348.000,319.240 348.218,318.813 348.485 C 317.910 349.049,317.230 348.610,317.927 347.913 C 318.187 347.653,318.400 346.846,318.400 346.120 C 318.400 345.394,318.580 344.800,318.800 344.800 C 319.052 344.800,319.200 342.141,319.200 337.624 C 319.200 333.271,319.043 330.350,318.800 330.200 C 318.580 330.064,318.400 329.333,318.400 328.576 C 318.400 327.819,318.220 327.200,318.000 327.200 C 317.780 327.200,317.600 326.840,317.600 326.400 C 317.600 325.960,317.420 325.600,317.200 325.600 C 316.980 325.600,316.800 325.257,316.800 324.838 C 316.800 323.931,315.192 320.800,314.726 320.800 C 314.547 320.800,314.400 320.480,314.400 320.088 C 314.400 319.697,314.040 319.117,313.600 318.800 C 313.160 318.483,312.800 317.993,312.800 317.712 C 312.800 317.430,312.620 317.200,312.400 317.200 C 312.180 317.200,312.000 317.014,312.000 316.787 C 312.000 315.208,302.564 308.400,300.375 308.400 C 299.949 308.400,299.600 308.220,299.600 308.000 C 299.600 307.780,299.240 307.600,298.800 307.600 C 298.360 307.600,298.000 307.420,298.000 307.200 C 298.000 306.980,297.280 306.800,296.400 306.800 C 295.520 306.800,294.800 306.620,294.800 306.400 C 294.800 306.148,292.141 306.000,287.624 306.000 C 283.271 306.000,280.350 306.157,280.200 306.400 C 280.064 306.620,279.333 306.800,278.576 306.800 C 277.819 306.800,277.200 306.980,277.200 307.200 C 277.200 307.420,276.840 307.600,276.400 307.600 C 275.960 307.600,275.600 307.780,275.600 308.000 C 275.600 308.220,275.060 308.400,274.400 308.400 C 273.740 308.400,273.200 308.580,273.200 308.800 C 273.200 309.020,272.840 309.200,272.400 309.200 C 271.960 309.200,271.600 309.362,271.600 309.561 C 271.600 309.759,271.094 310.098,270.476 310.314 C 269.857 310.529,269.092 310.952,268.776 311.253 C 268.459 311.554,267.379 312.419,266.376 313.176 C 265.373 313.933,263.933 315.373,263.176 316.376 C 262.419 317.379,261.554 318.459,261.253 318.776 C 260.952 319.092,260.529 319.857,260.314 320.476 C 260.098 321.094,259.759 321.600,259.561 321.600 C 259.362 321.600,259.200 321.960,259.200 322.400 C 259.200 322.840,259.020 323.200,258.800 323.200 C 258.580 323.200,258.400 323.740,258.400 324.400 C 258.400 325.060,258.220 325.600,258.000 325.600 C 257.780 325.600,257.600 325.960,257.600 326.400 C 257.600 326.840,257.420 327.200,257.200 327.200 C 256.980 327.200,256.800 327.819,256.800 328.576 C 256.800 329.333,256.620 330.064,256.400 330.200 C 256.157 330.350,256.000 333.271,256.000 337.624 C 256.000 342.141,256.148 344.800,256.400 344.800 C 256.620 344.800,256.800 345.520,256.800 346.400 C 256.800 347.280,256.980 348.000,257.200 348.000 C 257.420 348.000,257.600 348.180,257.600 348.400 C 257.600 348.620,257.330 348.800,257.000 348.800 C 256.670 348.800,256.400 348.620,256.400 348.400 C 256.400 348.180,255.770 348.000,255.000 348.000 C 254.230 348.000,253.600 347.820,253.600 347.600 C 253.600 347.380,253.315 347.200,252.966 347.200 C 252.182 347.200,247.200 344.752,247.200 344.366 C 247.200 344.213,246.739 343.971,246.176 343.830 C 245.612 343.688,244.362 342.783,243.397 341.818 C 242.432 340.853,241.399 339.914,241.100 339.732 C 240.802 339.549,239.938 338.590,239.179 337.600 C 238.421 336.610,237.710 335.710,237.599 335.600 C 237.489 335.490,237.144 334.905,236.832 334.300 C 236.520 333.695,236.115 333.200,235.932 333.200 C 235.750 333.200,235.600 332.840,235.600 332.400 C 235.600 331.960,235.420 331.600,235.200 331.600 C 234.980 331.600,234.800 331.240,234.800 330.800 C 234.800 330.360,234.620 330.000,234.400 330.000 C 234.180 330.000,234.000 329.561,234.000 329.024 C 234.000 328.487,233.820 327.936,233.600 327.800 C 233.380 327.664,233.200 327.034,233.200 326.400 C 233.200 325.766,233.020 325.136,232.800 325.000 C 232.580 324.864,232.400 323.424,232.400 321.800 C 232.400 320.176,232.220 318.736,232.000 318.600 C 231.741 318.440,231.600 310.663,231.600 296.576 L 231.600 274.800 224.985 274.800 L 218.369 274.800 218.485 300.800 M243.600 290.810 L 243.600 306.820 250.100 306.710 L 256.600 306.600 256.705 290.700 L 256.809 274.800 250.205 274.800 L 243.600 274.800 243.600 290.810 M318.400 290.800 L 318.400 306.800 325.000 306.800 L 331.600 306.800 331.600 290.800 L 331.600 274.800 325.000 274.800 L 318.400 274.800 318.400 290.800 M117.533 320.448 C 117.607 320.642,117.888 320.800,118.158 320.800 C 118.702 320.800,122.084 322.360,122.400 322.756 C 122.510 322.894,123.274 323.456,124.097 324.004 C 124.921 324.552,125.596 325.159,125.597 325.353 C 125.599 325.547,125.935 325.997,126.344 326.353 C 127.195 327.093,129.200 330.885,129.200 331.753 C 129.200 332.072,129.390 332.397,129.622 332.474 C 129.888 332.563,130.044 334.457,130.044 337.600 C 130.044 340.743,129.888 342.637,129.622 342.726 C 129.390 342.803,129.200 343.115,129.200 343.419 C 129.200 344.096,127.209 347.749,126.739 347.933 C 126.553 348.007,126.400 348.322,126.400 348.633 C 126.400 348.945,126.220 349.200,126.000 349.200 C 125.780 349.200,125.600 349.440,125.600 349.732 C 125.600 350.025,125.105 350.519,124.500 350.830 C 123.895 351.140,123.109 351.711,122.753 352.097 C 122.397 352.484,121.812 352.800,121.453 352.800 C 121.094 352.800,120.800 352.980,120.800 353.200 C 120.800 353.420,120.440 353.600,120.000 353.600 C 119.560 353.600,119.200 353.780,119.200 354.000 C 119.200 354.220,118.840 354.400,118.400 354.400 C 117.960 354.400,117.600 354.580,117.600 354.800 C 117.600 355.045,115.667 355.200,112.600 355.200 C 109.533 355.200,107.600 355.045,107.600 354.800 C 107.600 354.580,107.347 354.400,107.038 354.400 C 106.380 354.400,103.232 352.820,102.485 352.114 C 102.202 351.847,101.467 351.330,100.850 350.966 C 100.234 350.602,99.298 349.606,98.770 348.752 C 98.243 347.898,97.674 347.200,97.506 347.200 C 97.338 347.200,97.200 346.930,97.200 346.600 C 97.200 346.270,97.020 346.000,96.800 346.000 C 96.580 346.000,96.400 345.640,96.400 345.200 C 96.400 344.760,96.220 344.400,96.000 344.400 C 95.780 344.400,95.600 344.040,95.600 343.600 C 95.600 343.160,95.420 342.800,95.200 342.800 C 94.954 342.800,94.800 340.800,94.800 337.600 C 94.800 334.400,94.954 332.400,95.200 332.400 C 95.420 332.400,95.600 332.040,95.600 331.600 C 95.600 331.160,95.780 330.800,96.000 330.800 C 96.220 330.800,96.400 330.440,96.400 330.000 C 96.400 329.560,96.580 329.200,96.800 329.200 C 97.020 329.200,97.200 328.922,97.200 328.582 C 97.200 328.242,97.650 327.514,98.200 326.964 C 98.750 326.414,99.200 325.827,99.200 325.659 C 99.200 325.264,103.870 321.915,105.300 321.285 C 105.905 321.018,106.805 320.624,107.300 320.408 C 108.986 319.675,117.252 319.707,117.533 320.448 M292.733 320.448 C 292.807 320.642,293.116 320.800,293.421 320.800 C 294.552 320.800,299.725 324.219,300.522 325.493 C 300.699 325.776,301.284 326.448,301.822 326.986 C 302.360 327.524,302.800 328.242,302.800 328.582 C 302.800 328.922,302.980 329.200,303.200 329.200 C 303.420 329.200,303.600 329.560,303.600 330.000 C 303.600 330.440,303.780 330.800,304.000 330.800 C 304.220 330.800,304.400 331.160,304.400 331.600 C 304.400 332.040,304.580 332.400,304.800 332.400 C 305.046 332.400,305.200 334.400,305.200 337.600 C 305.200 340.800,305.046 342.800,304.800 342.800 C 304.580 342.800,304.400 343.160,304.400 343.600 C 304.400 344.040,304.220 344.400,304.000 344.400 C 303.780 344.400,303.600 344.760,303.600 345.200 C 303.600 345.640,303.420 346.000,303.200 346.000 C 302.980 346.000,302.800 346.270,302.800 346.600 C 302.800 346.930,302.662 347.200,302.494 347.200 C 302.326 347.200,301.760 347.894,301.236 348.742 C 300.712 349.590,299.590 350.712,298.742 351.236 C 297.894 351.760,297.200 352.326,297.200 352.494 C 297.200 352.662,296.930 352.800,296.600 352.800 C 296.270 352.800,296.000 352.980,296.000 353.200 C 296.000 353.420,295.640 353.600,295.200 353.600 C 294.760 353.600,294.400 353.780,294.400 354.000 C 294.400 354.220,294.040 354.400,293.600 354.400 C 293.160 354.400,292.800 354.580,292.800 354.800 C 292.800 355.046,290.800 355.200,287.600 355.200 C 284.400 355.200,282.400 355.046,282.400 354.800 C 282.400 354.580,282.040 354.400,281.600 354.400 C 281.160 354.400,280.800 354.220,280.800 354.000 C 280.800 353.780,280.440 353.600,280.000 353.600 C 279.560 353.600,279.200 353.420,279.200 353.200 C 279.200 352.980,278.922 352.800,278.582 352.800 C 278.242 352.800,277.524 352.360,276.986 351.822 C 276.448 351.284,275.776 350.699,275.493 350.522 C 274.219 349.725,270.800 344.552,270.800 343.421 C 270.800 343.116,270.610 342.803,270.378 342.726 C 270.112 342.637,269.956 340.743,269.956 337.600 C 269.956 334.457,270.112 332.563,270.378 332.474 C 270.610 332.397,270.800 332.095,270.800 331.804 C 270.800 331.281,272.228 328.320,273.000 327.243 C 274.935 324.542,280.068 320.800,281.838 320.800 C 282.147 320.800,282.400 320.629,282.400 320.419 C 282.400 319.676,292.452 319.704,292.733 320.448 " stroke="none" fill="#24242d" fill-rule="evenodd"></path></g></svg>